  0
SECTION
  2
HEADER
  9
$ACADVER
  1
AC1014
  9
$ACADMAINTVER
 70
     9
  9
$DWGCODEPAGE
  3
ANSI_932
  9
$INSBASE
 10
0.0
 20
0.0
 30
0.0
  9
$EXTMIN
 10
1.000000000000000E+20
 20
1.000000000000000E+20
 30
1.000000000000000E+20
  9
$EXTMAX
 10
-1.000000000000000E+20
 20
-1.000000000000000E+20
 30
-1.000000000000000E+20
  9
$LIMMIN
 10
0.0
 20
0.0
  9
$LIMMAX
 10
12.0
 20
9.0
  9
$ORTHOMODE
 70
     0
  9
$REGENMODE
 70
     1
  9
$FILLMODE
 70
     1
  9
$QTEXTMODE
 70
     0
  9
$MIRRTEXT
 70
     1
  9
$DRAGMODE
 70
     2
  9
$LTSCALE
 40
1.0
  9
$OSMODE
 70
    37
  9
$ATTMODE
 70
     1
  9
$TEXTSIZE
 40
0.2
  9
$TRACEWID
 40
0.05
  9
$TEXTSTYLE
  7
STANDARD
  9
$CLAYER
  8
0
  9
$CELTYPE
  6
BYLAYER
  9
$CECOLOR
 62
   256
  9
$CELTSCALE
 40
1.0
  9
$DELOBJ
 70
     1
  9
$DISPSILH
 70
     0
  9
$DIMSCALE
 40
1.0
  9
$DIMASZ
 40
0.18
  9
$DIMEXO
 40
0.0625
  9
$DIMDLI
 40
0.38
  9
$DIMRND
 40
0.0
  9
$DIMDLE
 40
0.0
  9
$DIMEXE
 40
0.18
  9
$DIMTP
 40
0.0
  9
$DIMTM
 40
0.0
  9
$DIMTXT
 40
0.18
  9
$DIMCEN
 40
0.09
  9
$DIMTSZ
 40
0.0
  9
$DIMTOL
 70
     0
  9
$DIMLIM
 70
     0
  9
$DIMTIH
 70
     1
  9
$DIMTOH
 70
     1
  9
$DIMSE1
 70
     0
  9
$DIMSE2
 70
     0
  9
$DIMTAD
 70
     0
  9
$DIMZIN
 70
     0
  9
$DIMBLK
  1

  9
$DIMASO
 70
     1
  9
$DIMSHO
 70
     1
  9
$DIMPOST
  1

  9
$DIMAPOST
  1

  9
$DIMALT
 70
     0
  9
$DIMALTD
 70
     2
  9
$DIMALTF
 40
25.4
  9
$DIMLFAC
 40
1.0
  9
$DIMTOFL
 70
     0
  9
$DIMTVP
 40
0.0
  9
$DIMTIX
 70
     0
  9
$DIMSOXD
 70
     0
  9
$DIMSAH
 70
     0
  9
$DIMBLK1
  1

  9
$DIMBLK2
  1

  9
$DIMSTYLE
  2
STANDARD
  9
$DIMCLRD
 70
     0
  9
$DIMCLRE
 70
     0
  9
$DIMCLRT
 70
     0
  9
$DIMTFAC
 40
1.0
  9
$DIMGAP
 40
0.09
  9
$DIMJUST
 70
     0
  9
$DIMSD1
 70
     0
  9
$DIMSD2
 70
     0
  9
$DIMTOLJ
 70
     1
  9
$DIMTZIN
 70
     0
  9
$DIMALTZ
 70
     0
  9
$DIMALTTZ
 70
     0
  9
$DIMFIT
 70
     3
  9
$DIMUPT
 70
     0
  9
$DIMUNIT
 70
     2
  9
$DIMDEC
 70
     4
  9
$DIMTDEC
 70
     4
  9
$DIMALTU
 70
     2
  9
$DIMALTTD
 70
     2
  9
$DIMTXSTY
  7
STANDARD
  9
$DIMAUNIT
 70
     0
  9
$LUNITS
 70
     2
  9
$LUPREC
 70
     4
  9
$SKETCHINC
 40
0.1
  9
$FILLETRAD
 40
0.5
  9
$AUNITS
 70
     0
  9
$AUPREC
 70
     0
  9
$MENU
  1
.
  9
$ELEVATION
 40
0.0
  9
$PELEVATION
 40
0.0
  9
$THICKNESS
 40
0.0
  9
$LIMCHECK
 70
     0
  9
$CHAMFERA
 40
0.5
  9
$CHAMFERB
 40
0.5
  9
$CHAMFERC
 40
1.0
  9
$CHAMFERD
 40
0.0
  9
$SKPOLY
 70
     0
  9
$TDCREATE
 40
2456335.851608797
  9
$TDUPDATE
 40
2456335.851608808
  9
$TDINDWG
 40
0.0000000116
  9
$TDUSRTIMER
 40
0.0000000116
  9
$USRTIMER
 70
     1
  9
$ANGBASE
 50
0.0
  9
$ANGDIR
 70
     0
  9
$PDMODE
 70
     0
  9
$PDSIZE
 40
0.0
  9
$PLINEWID
 40
0.0
  9
$COORDS
 70
     1
  9
$SPLFRAME
 70
     0
  9
$SPLINETYPE
 70
     6
  9
$SPLINESEGS
 70
     8
  9
$ATTDIA
 70
     0
  9
$ATTREQ
 70
     1
  9
$HANDLING
 70
     1
  9
$HANDSEED
  5
72
  9
$SURFTAB1
 70
     6
  9
$SURFTAB2
 70
     6
  9
$SURFTYPE
 70
     6
  9
$SURFU
 70
     6
  9
$SURFV
 70
     6
  9
$UCSNAME
  2

  9
$UCSORG
 10
0.0
 20
0.0
 30
0.0
  9
$UCSXDIR
 10
1.0
 20
0.0
 30
0.0
  9
$UCSYDIR
 10
0.0
 20
1.0
 30
0.0
  9
$PUCSNAME
  2

  9
$PUCSORG
 10
0.0
 20
0.0
 30
0.0
  9
$PUCSXDIR
 10
1.0
 20
0.0
 30
0.0
  9
$PUCSYDIR
 10
0.0
 20
1.0
 30
0.0
  9
$USERI1
 70
     0
  9
$USERI2
 70
     0
  9
$USERI3
 70
     0
  9
$USERI4
 70
     0
  9
$USERI5
 70
     0
  9
$USERR1
 40
0.0
  9
$USERR2
 40
0.0
  9
$USERR3
 40
0.0
  9
$USERR4
 40
0.0
  9
$USERR5
 40
0.0
  9
$WORLDVIEW
 70
     1
  9
$SHADEDGE
 70
     3
  9
$SHADEDIF
 70
    70
  9
$TILEMODE
 70
     1
  9
$MAXACTVP
 70
    64
  9
$PINSBASE
 10
0.0
 20
0.0
 30
0.0
  9
$PLIMCHECK
 70
     0
  9
$PEXTMIN
 10
1.000000000000000E+20
 20
1.000000000000000E+20
 30
1.000000000000000E+20
  9
$PEXTMAX
 10
-1.000000000000000E+20
 20
-1.000000000000000E+20
 30
-1.000000000000000E+20
  9
$PLIMMIN
 10
0.0
 20
0.0
  9
$PLIMMAX
 10
12.0
 20
9.0
  9
$UNITMODE
 70
     0
  9
$VISRETAIN
 70
     1
  9
$PLINEGEN
 70
     0
  9
$PSLTSCALE
 70
     1
  9
$TREEDEPTH
 70
  3020
  9
$PICKSTYLE
 70
     1
  9
$CMLSTYLE
  2
STANDARD
  9
$CMLJUST
 70
     0
  9
$CMLSCALE
 40
1.0
  9
$PROXYGRAPHICS
 70
     1
  9
$MEASUREMENT
 70
     0
  0
ENDSEC
  0
SECTION
  2
CLASSES
  0
CLASS
  1
ACDBDICTIONARYWDFLT
  2
AcDbDictionaryWithDefault
  3
ObjectDBX Classes
 90
        0
280
     0
281
     0
  0
CLASS
  1
VISUALSTYLE
  2
AcDbVisualStyle
  3
ObjectDBX Classes
 90
     4095
280
     0
281
     0
  0
CLASS
  1
XRECORD
  2
AcDbXrecord
  3
AutoCAD 2000
 90
        0
280
     0
281
     0
  0
CLASS
  1
LWPOLYLINE
  2
AcDbPolyline
  3
AutoCAD 2000
 90
        0
280
     0
281
     1
  0
CLASS
  1
HATCH
  2
AcDbHatch
  3
AutoCAD 2000
 90
        0
280
     0
281
     1
  0
CLASS
  1
ACDBPLACEHOLDER
  2
AcDbPlaceHolder
  3
ObjectDBX Classes
 90
        0
280
     0
281
     0
  0
CLASS
  1
LAYOUT
  2
AcDbLayout
  3
ObjectDBX Classes
 90
        0
280
     0
281
     0
  0
ENDSEC
  0
SECTION
  2
TABLES
  0
TABLE
  2
VPORT
  5
8
330
0
100
AcDbSymbolTable
 70
     1
  0
VPORT
  5
29
330
8
100
AcDbSymbolTableRecord
100
AcDbViewportTableRecord
  2
*ACTIVE
 70
     0
 10
0.0
 20
0.0
 11
1.0
 21
1.0
 12
0.0
 22
0.0
 13
0.0
 23
0.0
 14
0.5
 24
0.5
 15
0.5
 25
0.5
 16
0.0
 26
0.0
 36
1.0
 17
105.0008259828644
 27
148.5000657452101
 37
0.0
 40
297.0001314904201
 41
0.7070759562020681
 42
50.0
 43
0.0
 44
0.0
 50
0.0
 51
0.0
 71
     0
 72
   100
 73
     1
 74
     3
 75
     0
 76
     0
 77
     0
 78
     0
  0
ENDTAB
  0
TABLE
  2
LTYPE
  5
5
330
0
100
AcDbSymbolTable
 70
     1
  0
LTYPE
  5
14
330
5
100
AcDbSymbolTableRecord
100
AcDbLinetypeTableRecord
  2
BYBLOCK
 70
     0
  3

 72
    65
 73
     0
 40
0.0
  0
LTYPE
  5
15
330
5
100
AcDbSymbolTableRecord
100
AcDbLinetypeTableRecord
  2
BYLAYER
 70
     0
  3

 72
    65
 73
     0
 40
0.0
  0
LTYPE
  5
16
330
5
100
AcDbSymbolTableRecord
100
AcDbLinetypeTableRecord
  2
CONTINUOUS
 70
     0
  3
Solid line
 72
    65
 73
     0
 40
0.0
  0
ENDTAB
  0
TABLE
  2
LAYER
  5
2
330
0
100
AcDbSymbolTable
 70
     2
  0
LAYER
  5
10
330
2
100
AcDbSymbolTableRecord
100
AcDbLayerTableRecord
  2
0
 70
     0
 62
     7
  6
CONTINUOUS
  0
LAYER
  5
3B
330
2
100
AcDbSymbolTableRecord
100
AcDbLayerTableRecord
  2
LAYER_1
 70
     0
 62
     7
  6
CONTINUOUS
  0
ENDTAB
  0
TABLE
  2
STYLE
  5
3
330
0
100
AcDbSymbolTable
 70
     1
  0
STYLE
  5
11
330
3
100
AcDbSymbolTableRecord
100
AcDbTextStyleTableRecord
  2
STANDARD
 70
     0
 40
0.0
 41
1.0
 50
0.0
 71
     0
 42
0.2
  3
txt
  4

  0
ENDTAB
  0
TABLE
  2
VIEW
  5
6
330
0
100
AcDbSymbolTable
 70
     0
  0
ENDTAB
  0
TABLE
  2
UCS
  5
7
330
0
100
AcDbSymbolTable
 70
     0
  0
ENDTAB
  0
TABLE
  2
APPID
  5
9
330
0
100
AcDbSymbolTable
 70
     1
  0
APPID
  5
12
330
9
100
AcDbSymbolTableRecord
100
AcDbRegAppTableRecord
  2
ACAD
 70
     0
  0
ENDTAB
  0
TABLE
  2
DIMSTYLE
  5
A
330
0
100
AcDbSymbolTable
 70
     1
  0
DIMSTYLE
105
27
330
A
100
AcDbSymbolTableRecord
100
AcDbDimStyleTableRecord
  2
STANDARD
 70
     0
  3

  4

  5

  6

  7

 40
1.0
 41
0.18
 42
0.0625
 43
0.38
 44
0.18
 45
0.0
 46
0.0
 47
0.0
 48
0.0
140
0.18
141
0.09
142
0.0
143
25.4
144
1.0
145
0.0
146
1.0
147
0.09
 71
     0
 72
     0
 73
     1
 74
     1
 75
     0
 76
     0
 77
     0
 78
     0
170
     0
171
     2
172
     0
173
     0
174
     0
175
     0
176
     0
177
     0
178
     0
270
     2
271
     4
272
     4
273
     2
274
     2
340
11
275
     0
280
     0
281
     0
282
     0
283
     1
284
     0
285
     0
286
     0
287
     3
288
     0
  0
ENDTAB
  0
TABLE
  2
BLOCK_RECORD
  5
1
330
0
100
AcDbSymbolTable
 70
     2
  0
BLOCK_RECORD
  5
1F
330
1
100
AcDbSymbolTableRecord
100
AcDbBlockTableRecord
  2
*MODEL_SPACE
  0
BLOCK_RECORD
  5
1B
330
1
100
AcDbSymbolTableRecord
100
AcDbBlockTableRecord
  2
*PAPER_SPACE
  0
BLOCK_RECORD
  5
3C
330
1
100
AcDbSymbolTableRecord
100
AcDbBlockTableRecord
  2
BLOCK_2
  0
ENDTAB
  0
ENDSEC
  0
SECTION
  2
BLOCKS
  0
BLOCK
  5
20
330
1F
100
AcDbEntity
  8
0
100
AcDbBlockBegin
  2
*MODEL_SPACE
 70
     0
 71
     0
 10
0.0
 20
0.0
 30
0.0
  3
*MODEL_SPACE
  1

  0
ENDBLK
  5
21
330
1F
100
AcDbEntity
  8
0
100
AcDbBlockEnd
  0
BLOCK
  5
1C
330
1B
100
AcDbEntity
 67
     1
  8
0
100
AcDbBlockBegin
  2
*PAPER_SPACE
 70
     0
 71
     0
 10
0.0
 20
0.0
 30
0.0
  3
*PAPER_SPACE
  1

  0
ENDBLK
  5
1D
330
1B
100
AcDbEntity
 67
     1
  8
0
100
AcDbBlockEnd
  0
BLOCK
  5
3E
330
3C
100
AcDbEntity
  8
0
100
AcDbBlockBegin
  2
BLOCK_2
 70
     0
 71
     0
 10
0.0
 20
0.0
 30
0.0
  3
BLOCK_2
  1

  0
POLYLINE
  5
40
330
3C
100
AcDbEntity
  8
LAYER_1
100
AcDb2dPolyline
 66
     1
 10
0.0
 20
0.0
 30
0.0
  0
VERTEX
  5
41
330
40
100
AcDbEntity
  8
LAYER_1
100
AcDbVertex
100
AcDb2dVertex
 10
145.4061116172943
 20
194.6559908910062
 30
0.0
  0
VERTEX
  5
42
330
40
100
AcDbEntity
  8
LAYER_1
100
AcDbVertex
100
AcDb2dVertex
 10
172.2657985680447
 20
167.4042520740344
 30
0.0
  0
VERTEX
  5
43
330
40
100
AcDbEntity
  8
LAYER_1
100
AcDbVertex
100
AcDb2dVertex
 10
172.2657985680447
 20
194.6559908910062
 30
0.0
  0
VERTEX
  5
44
330
40
100
AcDbEntity
  8
LAYER_1
100
AcDbVertex
100
AcDb2dVertex
 10
145.4061116172943
 20
194.6559908910062
 30
0.0
  0
SEQEND
  5
45
330
40
100
AcDbEntity
  8
LAYER_1
  0
HATCH
  5
46
330
3C
100
AcDbEntity
  8
LAYER_1
 62
     7
100
AcDbHatch
 10
0.0
 20
0.0
 30
0.0
210
0.0
220
0.0
230
1.0
  2
SOLID
 70
     1
 71
     0
 91
        1
 92
        1
 93
        3
 72
     1
 10
145.4061116172943
 20
194.6559908910062
 11
172.2657985680447
 21
167.4042520740344
 72
     1
 10
172.2657985680447
 20
167.4042520740344
 11
172.2657985680447
 21
194.6559908910062
 72
     1
 10
172.2657985680447
 20
194.6559908910062
 11
145.4061116172943
 21
194.6559908910062
 97
        0
 75
     2
 76
     1
 98
        0
  0
SPLINE
  5
47
330
3C
100
AcDbEntity
  8
LAYER_1
100
AcDbSpline
210
0.0
220
0.0
230
1.0
 70
    11
 71
     3
 72
    20
 73
    16
 74
     0
 42
0.0000000001
 43
0.0000000001
 40
0.0
 40
0.0
 40
0.0
 40
0.0
 40
1.0
 40
1.0
 40
1.0
 40
2.0
 40
2.0
 40
2.0
 40
3.0
 40
3.0
 40
3.0
 40
4.0
 40
4.0
 40
4.0
 40
5.0
 40
5.0
 40
5.0
 40
5.0
 10
139.1815130945449
 20
181.9477226650166
 30
0.0
 10
139.1815130945449
 20
183.4484062583914
 30
0.0
 10
137.9647053691547
 20
184.6245618570557
 30
0.0
 10
136.5046739025058
 20
184.6245618570557
 30
0.0
 10
135.003990309131
 20
184.6245618570557
 30
0.0
 10
133.7871825837407
 20
183.4484062583914
 30
0.0
 10
133.7871825837407
 20
181.9477226650166
 30
0.0
 10
133.7871825837407
 20
181.9477226650166
 30
0.0
 10
133.7871825837407
 20
178.9463554782669
 30
0.0
 10
133.7871825837407
 20
178.9463554782669
 30
0.0
 10
133.7871825837407
 20
178.9463554782669
 30
0.0
 10
139.1815130945449
 20
178.9463554782669
 30
0.0
 10
139.1815130945449
 20
178.9463554782669
 30
0.0
 10
139.1815130945449
 20
178.9463554782669
 30
0.0
 10
139.1815130945449
 20
181.9477226650166
 30
0.0
 10
139.1815130945449
 20
181.9477226650166
 30
0.0
  0
HATCH
  5
48
330
3C
100
AcDbEntity
  8
LAYER_1
 62
     7
100
AcDbHatch
 10
0.0
 20
0.0
 30
0.0
210
0.0
220
0.0
230
1.0
  2
SOLID
 70
     1
 71
     0
 91
        1
 92
        1
 93
        1
 72
     4
 94
        3
 73
     0
 74
     1
 95
       20
 96
       16
 40
0.0
 40
0.0
 40
0.0
 40
0.0
 40
1.0
 40
1.0
 40
1.0
 40
2.0
 40
2.0
 40
2.0
 40
3.0
 40
3.0
 40
3.0
 40
4.0
 40
4.0
 40
4.0
 40
5.0
 40
5.0
 40
5.0
 40
5.0
 10
139.1815130945449
 20
181.9477226650166
 10
139.1815130945449
 20
183.4484062583914
 10
137.9647053691547
 20
184.6245618570557
 10
136.5046739025058
 20
184.6245618570557
 10
135.003990309131
 20
184.6245618570557
 10
133.7871825837407
 20
183.4484062583914
 10
133.7871825837407
 20
181.9477226650166
 10
133.7871825837407
 20
181.9477226650166
 10
133.7871825837407
 20
178.9463554782669
 10
133.7871825837407
 20
178.9463554782669
 10
133.7871825837407
 20
178.9463554782669
 10
139.1815130945449
 20
178.9463554782669
 10
139.1815130945449
 20
178.9463554782669
 10
139.1815130945449
 20
178.9463554782669
 10
139.1815130945449
 20
181.9477226650166
 10
139.1815130945449
 20
181.9477226650166
 97
        0
 75
     2
 76
     1
 98
        0
  0
SPLINE
  5
49
330
3C
100
AcDbEntity
  8
LAYER_1
100
AcDbSpline
210
0.0
220
0.0
230
1.0
 70
    11
 71
     3
 72
    23
 73
    19
 74
     0
 42
0.0000000001
 43
0.0000000001
 40
0.0
 40
0.0
 40
0.0
 40
0.0
 40
1.0
 40
1.0
 40
1.0
 40
2.0
 40
2.0
 40
2.0
 40
3.0
 40
3.0
 40
3.0
 40
4.0
 40
4.0
 40
4.0
 40
5.0
 40
5.0
 40
5.0
 40
6.0
 40
6.0
 40
6.0
 40
6.0
 10
128.4517632057343
 20
164.5479234072137
 30
0.0
 10
128.4517632057343
 20
164.5479234072137
 30
0.0
 10
128.4517632057343
 20
185.9629814530752
 30
0.0
 10
128.4517632057343
 20
185.9629814530752
 30
0.0
 10
128.4517632057343
 20
185.9629814530752
 30
0.0
 10
123.0570881853816
 20
185.9629814530752
 30
0.0
 10
123.0570881853816
 20
185.9629814530752
 30
0.0
 10
123.0570881853816
 20
185.9629814530752
 30
0.0
 10
123.0570881853816
 20
164.5479234072137
 30
0.0
 10
123.0570881853816
 20
164.5479234072137
 30
0.0
 10
123.0570881853816
 20
158.8287203921505
 30
0.0
 10
126.3020236229384
 20
155.1786417255283
 30
0.0
 10
132.426369867067
 20
155.8276977149493
 30
0.0
 10
132.426369867067
 20
155.8276977149493
 30
0.0
 10
132.426369867067
 20
160.6945841069618
 30
0.0
 10
132.426369867067
 20
160.6945841069618
 30
0.0
 10
129.7898382922053
 20
160.5323201096065
 30
0.0
 10
128.4517632057343
 20
161.5868638376415
 30
0.0
 10
128.4517632057343
 20
164.5479234072137
 30
0.0
  0
HATCH
  5
4A
330
3C
100
AcDbEntity
  8
LAYER_1
 62
     7
100
AcDbHatch
 10
0.0
 20
0.0
 30
0.0
210
0.0
220
0.0
230
1.0
  2
SOLID
 70
     1
 71
     0
 91
        1
 92
        1
 93
        1
 72
     4
 94
        3
 73
     0
 74
     1
 95
       23
 96
       19
 40
0.0
 40
0.0
 40
0.0
 40
0.0
 40
1.0
 40
1.0
 40
1.0
 40
2.0
 40
2.0
 40
2.0
 40
3.0
 40
3.0
 40
3.0
 40
4.0
 40
4.0
 40
4.0
 40
5.0
 40
5.0
 40
5.0
 40
6.0
 40
6.0
 40
6.0
 40
6.0
 10
128.4517632057343
 20
164.5479234072137
 10
128.4517632057343
 20
164.5479234072137
 10
128.4517632057343
 20
185.9629814530752
 10
128.4517632057343
 20
185.9629814530752
 10
128.4517632057343
 20
185.9629814530752
 10
123.0570881853816
 20
185.9629814530752
 10
123.0570881853816
 20
185.9629814530752
 10
123.0570881853816
 20
185.9629814530752
 10
123.0570881853816
 20
164.5479234072137
 10
123.0570881853816
 20
164.5479234072137
 10
123.0570881853816
 20
158.8287203921505
 10
126.3020236229384
 20
155.1786417255283
 10
132.426369867067
 20
155.8276977149493
 10
132.426369867067
 20
155.8276977149493
 10
132.426369867067
 20
160.6945841069618
 10
132.426369867067
 20
160.6945841069618
 10
129.7898382922053
 20
160.5323201096065
 10
128.4517632057343
 20
161.5868638376415
 10
128.4517632057343
 20
164.5479234072137
 97
        0
 75
     2
 76
     1
 98
        0
  0
SPLINE
  5
4B
330
3C
100
AcDbEntity
  8
LAYER_1
100
AcDbSpline
210
0.0
220
0.0
230
1.0
 70
    11
 71
     3
 72
    59
 73
    55
 74
     0
 42
0.0000000001
 43
0.0000000001
 40
0.0
 40
0.0
 40
0.0
 40
0.0
 40
1.0
 40
1.0
 40
1.0
 40
2.0
 40
2.0
 40
2.0
 40
3.0
 40
3.0
 40
3.0
 40
4.0
 40
4.0
 40
4.0
 40
5.0
 40
5.0
 40
5.0
 40
6.0
 40
6.0
 40
6.0
 40
7.0
 40
7.0
 40
7.0
 40
8.0
 40
8.0
 40
8.0
 40
9.0
 40
9.0
 40
9.0
 40
10.0
 40
10.0
 40
10.0
 40
11.0
 40
11.0
 40
11.0
 40
12.0
 40
12.0
 40
12.0
 40
13.0
 40
13.0
 40
13.0
 40
14.0
 40
14.0
 40
14.0
 40
15.0
 40
15.0
 40
15.0
 40
16.0
 40
16.0
 40
16.0
 40
17.0
 40
17.0
 40
17.0
 40
18.0
 40
18.0
 40
18.0
 40
18.0
 10
65.89795869663315
 20
184.6245618570557
 30
0.0
 10
62.81545951120586
 20
184.6245618570557
 30
0.0
 10
60.09796819244079
 20
183.2051825171327
 30
0.0
 10
58.39436847498474
 20
180.9741386808849
 30
0.0
 10
56.65046114035128
 20
183.2051825171327
 30
0.0
 10
54.01410182026384
 20
184.6245618570557
 30
0.0
 10
50.89112276288486
 20
184.6245618570557
 30
0.0
 10
44.88821613461128
 20
184.6245618570557
 30
0.0
 10
40.71069334919733
 20
180.1225110769312
 30
0.0
 10
40.71069334919733
 20
174.4847845700941
 30
0.0
 10
40.71069334919733
 20
168.5700723862429
 30
0.0
 10
40.71069334919733
 20
162.655532457166
 30
0.0
 10
40.71069334919733
 20
156.7409925280891
 30
0.0
 10
40.71069334919733
 20
156.2331854535632
 30
0.0
 10
41.09861110083646
 20
155.7870455882234
 30
0.0
 10
41.70391437759486
 20
155.7870455882234
 30
0.0
 10
41.70391437759486
 20
155.7870455882234
 30
0.0
 10
46.02389186132389
 20
155.7870455882234
 30
0.0
 10
46.02389186132389
 20
155.7870455882234
 30
0.0
 10
46.02389186132389
 20
155.7870455882234
 30
0.0
 10
46.02389186132389
 20
174.5659165687717
 30
0.0
 10
46.02389186132389
 20
174.5659165687717
 30
0.0
 10
46.02389186132389
 20
177.2427557608108
 30
0.0
 10
47.93006319331263
 20
179.3924953436068
 30
0.0
 10
50.89112276288486
 20
179.3924953436068
 30
0.0
 10
53.81118569618262
 20
179.3924953436068
 30
0.0
 10
55.71752928294562
 20
177.2427557608108
 30
0.0
 10
55.71752928294562
 20
174.5659165687717
 30
0.0
 10
55.71752928294562
 20
174.5659165687717
 30
0.0
 10
55.71752928294562
 20
155.7870455882234
 30
0.0
 10
55.71752928294562
 20
155.7870455882234
 30
0.0
 10
55.71752928294562
 20
155.7870455882234
 30
0.0
 10
61.11203204852408
 20
155.7870455882234
 30
0.0
 10
61.11203204852408
 20
155.7870455882234
 30
0.0
 10
61.11203204852408
 20
155.7870455882234
 30
0.0
 10
61.11203204852408
 20
174.5659165687717
 30
0.0
 10
61.11203204852408
 20
174.5659165687717
 30
0.0
 10
61.11203204852408
 20
177.2427557608108
 30
0.0
 10
62.93707138183518
 20
179.3924953436068
 30
0.0
 10
65.89795869663315
 20
179.3924953436068
 30
0.0
 10
68.81819388470518
 20
179.3924953436068
 30
0.0
 10
70.76501734341986
 20
177.2427557608108
 30
0.0
 10
70.76501734341986
 20
174.5659165687717
 30
0.0
 10
70.76501734341986
 20
174.5659165687717
 30
0.0
 10
70.76501734341986
 20
155.7870455882234
 30
0.0
 10
70.76501734341986
 20
155.7870455882234
 30
0.0
 10
70.76501734341986
 20
155.7870455882234
 30
0.0
 10
76.11886798227236
 20
155.7870455882234
 30
0.0
 10
76.11886798227236
 20
155.7870455882234
 30
0.0
 10
76.11886798227236
 20
155.7870455882234
 30
0.0
 10
76.11886798227236
 20
174.4847845700941
 30
0.0
 10
76.11886798227236
 20
174.4847845700941
 30
0.0
 10
76.11886798227236
 20
180.1225110769312
 30
0.0
 10
71.94117294208415
 20
184.6245618570557
 30
0.0
 10
65.89795869663315
 20
184.6245618570557
 30
0.0
  0
HATCH
  5
4C
330
3C
100
AcDbEntity
  8
LAYER_1
 62
     7
100
AcDbHatch
 10
0.0
 20
0.0
 30
0.0
210
0.0
220
0.0
230
1.0
  2
SOLID
 70
     1
 71
     0
 91
        1
 92
        1
 93
        1
 72
     4
 94
        3
 73
     0
 74
     1
 95
       59
 96
       55
 40
0.0
 40
0.0
 40
0.0
 40
0.0
 40
1.0
 40
1.0
 40
1.0
 40
2.0
 40
2.0
 40
2.0
 40
3.0
 40
3.0
 40
3.0
 40
4.0
 40
4.0
 40
4.0
 40
5.0
 40
5.0
 40
5.0
 40
6.0
 40
6.0
 40
6.0
 40
7.0
 40
7.0
 40
7.0
 40
8.0
 40
8.0
 40
8.0
 40
9.0
 40
9.0
 40
9.0
 40
10.0
 40
10.0
 40
10.0
 40
11.0
 40
11.0
 40
11.0
 40
12.0
 40
12.0
 40
12.0
 40
13.0
 40
13.0
 40
13.0
 40
14.0
 40
14.0
 40
14.0
 40
15.0
 40
15.0
 40
15.0
 40
16.0
 40
16.0
 40
16.0
 40
17.0
 40
17.0
 40
17.0
 40
18.0
 40
18.0
 40
18.0
 40
18.0
 10
65.89795869663315
 20
184.6245618570557
 10
62.81545951120586
 20
184.6245618570557
 10
60.09796819244079
 20
183.2051825171327
 10
58.39436847498474
 20
180.9741386808849
 10
56.65046114035128
 20
183.2051825171327
 10
54.01410182026384
 20
184.6245618570557
 10
50.89112276288486
 20
184.6245618570557
 10
44.88821613461128
 20
184.6245618570557
 10
40.71069334919733
 20
180.1225110769312
 10
40.71069334919733
 20
174.4847845700941
 10
40.71069334919733
 20
168.5700723862429
 10
40.71069334919733
 20
162.655532457166
 10
40.71069334919733
 20
156.7409925280891
 10
40.71069334919733
 20
156.2331854535632
 10
41.09861110083646
 20
155.7870455882234
 10
41.70391437759486
 20
155.7870455882234
 10
41.70391437759486
 20
155.7870455882234
 10
46.02389186132389
 20
155.7870455882234
 10
46.02389186132389
 20
155.7870455882234
 10
46.02389186132389
 20
155.7870455882234
 10
46.02389186132389
 20
174.5659165687717
 10
46.02389186132389
 20
174.5659165687717
 10
46.02389186132389
 20
177.2427557608108
 10
47.93006319331263
 20
179.3924953436068
 10
50.89112276288486
 20
179.3924953436068
 10
53.81118569618262
 20
179.3924953436068
 10
55.71752928294562
 20
177.2427557608108
 10
55.71752928294562
 20
174.5659165687717
 10
55.71752928294562
 20
174.5659165687717
 10
55.71752928294562
 20
155.7870455882234
 10
55.71752928294562
 20
155.7870455882234
 10
55.71752928294562
 20
155.7870455882234
 10
61.11203204852408
 20
155.7870455882234
 10
61.11203204852408
 20
155.7870455882234
 10
61.11203204852408
 20
155.7870455882234
 10
61.11203204852408
 20
174.5659165687717
 10
61.11203204852408
 20
174.5659165687717
 10
61.11203204852408
 20
177.2427557608108
 10
62.93707138183518
 20
179.3924953436068
 10
65.89795869663315
 20
179.3924953436068
 10
68.81819388470518
 20
179.3924953436068
 10
70.76501734341986
 20
177.2427557608108
 10
70.76501734341986
 20
174.5659165687717
 10
70.76501734341986
 20
174.5659165687717
 10
70.76501734341986
 20
155.7870455882234
 10
70.76501734341986
 20
155.7870455882234
 10
70.76501734341986
 20
155.7870455882234
 10
76.11886798227236
 20
155.7870455882234
 10
76.11886798227236
 20
155.7870455882234
 10
76.11886798227236
 20
155.7870455882234
 10
76.11886798227236
 20
174.4847845700941
 10
76.11886798227236
 20
174.4847845700941
 10
76.11886798227236
 20
180.1225110769312
 10
71.94117294208415
 20
184.6245618570557
 10
65.89795869663315
 20
184.6245618570557
 97
        0
 75
     2
 76
     1
 98
        0
  0
SPLINE
  5
4D
330
3C
100
AcDbEntity
  8
LAYER_1
100
AcDbSpline
210
0.0
220
0.0
230
1.0
 70
    11
 71
     3
 72
    83
 73
    79
 74
     0
 42
0.0000000001
 43
0.0000000001
 40
0.0
 40
0.0
 40
0.0
 40
0.0
 40
1.0
 40
1.0
 40
1.0
 40
2.0
 40
2.0
 40
2.0
 40
3.0
 40
3.0
 40
3.0
 40
4.0
 40
4.0
 40
4.0
 40
5.0
 40
5.0
 40
5.0
 40
6.0
 40
6.0
 40
6.0
 40
7.0
 40
7.0
 40
7.0
 40
8.0
 40
8.0
 40
8.0
 40
9.0
 40
9.0
 40
9.0
 40
10.0
 40
10.0
 40
10.0
 40
11.0
 40
11.0
 40
11.0
 40
12.0
 40
12.0
 40
12.0
 40
13.0
 40
13.0
 40
13.0
 40
14.0
 40
14.0
 40
14.0
 40
15.0
 40
15.0
 40
15.0
 40
16.0
 40
16.0
 40
16.0
 40
17.0
 40
17.0
 40
17.0
 40
18.0
 40
18.0
 40
18.0
 40
19.0
 40
19.0
 40
19.0
 40
20.0
 40
20.0
 40
20.0
 40
21.0
 40
21.0
 40
21.0
 40
22.0
 40
22.0
 40
22.0
 40
23.0
 40
23.0
 40
23.0
 40
24.0
 40
24.0
 40
24.0
 40
25.0
 40
25.0
 40
25.0
 40
26.0
 40
26.0
 40
26.0
 40
26.0
 10
112.5243977583272
 20
177.2022758888592
 30
0.0
 10
106.8461913795385
 20
177.2022758888592
 30
0.0
 10
103.1144639499158
 20
173.1868448460262
 30
0.0
 10
103.1144639499158
 20
167.8738185886739
 30
0.0
 10
103.1144639499158
 20
167.8738185886739
 30
0.0
 10
103.1144639499158
 20
160.9784599749464
 30
0.0
 10
103.1144639499158
 20
160.9784599749464
 30
0.0
 10
103.1144639499158
 20
160.9784599749464
 30
0.0
 10
98.7746771671466
 20
160.9784599749464
 30
0.0
 10
98.7746771671466
 20
160.9784599749464
 30
0.0
 10
98.7746771671466
 20
160.9784599749464
 30
0.0
 10
98.7746771671466
 20
166.1702188712179
 30
0.0
 10
98.7746771671466
 20
166.1702188712179
 30
0.0
 10
98.7746771671466
 20
172.2540852433948
 30
0.0
 10
94.35375838569976
 20
177.2022758888592
 30
0.0
 10
88.0669758894416
 20
177.2022758888592
 30
0.0
 10
81.73971352123174
 20
177.2022758888592
 30
0.0
 10
77.31879473978489
 20
172.2540852433948
 30
0.0
 10
77.31879473978489
 20
166.3324828685731
 30
0.0
 10
77.31879473978489
 20
160.4920124924291
 30
0.0
 10
81.69923364928006
 20
155.7870455882234
 30
0.0
 10
87.5397040254241
 20
155.7870455882234
 30
0.0
 10
87.5397040254241
 20
155.7870455882234
 30
0.0
 10
91.27125920027247
 20
155.7870455882234
 30
0.0
 10
91.27125920027247
 20
155.7870455882234
 30
0.0
 10
91.27125920027247
 20
155.7870455882234
 30
0.0
 10
91.27125920027247
 20
160.9784599749464
 30
0.0
 10
91.27125920027247
 20
160.9784599749464
 30
0.0
 10
91.27125920027247
 20
160.9784599749464
 30
0.0
 10
88.18876001484517
 20
160.9784599749464
 30
0.0
 10
88.18876001484517
 20
160.9784599749464
 30
0.0
 10
85.10626082941788
 20
160.9784599749464
 30
0.0
 10
82.71329750536334
 20
163.2498114283716
 30
0.0
 10
82.71329750536334
 20
166.3324828685731
 30
0.0
 10
82.71329750536334
 20
169.4554619259521
 30
0.0
 10
85.10626082941788
 20
172.0106892473619
 30
0.0
 10
88.0669758894416
 20
172.0106892473619
 30
0.0
 10
91.02786320423957
 20
172.0106892473619
 30
0.0
 10
93.4208265282941
 20
169.3745021820487
 30
0.0
 10
93.4208265282941
 20
166.1702188712179
 30
0.0
 10
93.4208265282941
 20
166.1702188712179
 30
0.0
 10
93.4208265282941
 20
160.9784599749464
 30
0.0
 10
93.4208265282941
 20
160.9784599749464
 30
0.0
 10
93.4208265282941
 20
160.9784599749464
 30
0.0
 10
93.4208265282941
 20
155.7870455882234
 30
0.0
 10
93.4208265282941
 20
155.7870455882234
 30
0.0
 10
93.4208265282941
 20
155.7870455882234
 30
0.0
 10
98.7746771671466
 20
155.7870455882234
 30
0.0
 10
98.7746771671466
 20
155.7870455882234
 30
0.0
 10
98.7746771671466
 20
155.7870455882234
 30
0.0
 10
103.1144639499158
 20
155.7870455882234
 30
0.0
 10
103.1144639499158
 20
155.7870455882234
 30
0.0
 10
103.1144639499158
 20
155.7870455882234
 30
0.0
 10
108.4681423339941
 20
155.7870455882234
 30
0.0
 10
108.4681423339941
 20
155.7870455882234
 30
0.0
 10
108.4681423339941
 20
155.7870455882234
 30
0.0
 10
108.4681423339941
 20
160.9784599749464
 30
0.0
 10
108.4681423339941
 20
160.9784599749464
 30
0.0
 10
108.4681423339941
 20
160.9784599749464
 30
0.0
 10
108.4681423339941
 20
167.9950859497547
 30
0.0
 10
108.4681423339941
 20
167.9950859497547
 30
0.0
 10
108.4681423339941
 20
170.3477416566318
 30
0.0
 10
110.1720865609987
 20
171.970037120636
 30
0.0
 10
112.5243977583272
 20
171.970037120636
 30
0.0
 10
116.0528645543201
 20
171.970037120636
 30
0.0
 10
116.4586968024825
 20
169.1715860579675
 30
0.0
 10
116.4586968024825
 20
167.9950859497547
 30
0.0
 10
116.4586968024825
 20
167.9950859497547
 30
0.0
 10
116.4586968024825
 20
166.9408867312683
 30
0.0
 10
116.4586968024825
 20
166.9408867312683
 30
0.0
 10
116.4586968024825
 20
166.9408867312683
 30
0.0
 10
121.8123751865608
 20
166.9408867312683
 30
0.0
 10
121.8123751865608
 20
166.9408867312683
 30
0.0
 10
121.8123751865608
 20
166.9408867312683
 30
0.0
 10
121.8123751865608
 20
167.8738185886739
 30
0.0
 10
121.8123751865608
 20
167.8738185886739
 30
0.0
 10
121.8123751865608
 20
173.3491088433815
 30
0.0
 10
118.3648681344713
 20
177.2022758888592
 30
0.0
 10
112.5243977583272
 20
177.2022758888592
 30
0.0
  0
HATCH
  5
4E
330
3C
100
AcDbEntity
  8
LAYER_1
 62
     7
100
AcDbHatch
 10
0.0
 20
0.0
 30
0.0
210
0.0
220
0.0
230
1.0
  2
SOLID
 70
     1
 71
     0
 91
        1
 92
        1
 93
        1
 72
     4
 94
        3
 73
     0
 74
     1
 95
       83
 96
       79
 40
0.0
 40
0.0
 40
0.0
 40
0.0
 40
1.0
 40
1.0
 40
1.0
 40
2.0
 40
2.0
 40
2.0
 40
3.0
 40
3.0
 40
3.0
 40
4.0
 40
4.0
 40
4.0
 40
5.0
 40
5.0
 40
5.0
 40
6.0
 40
6.0
 40
6.0
 40
7.0
 40
7.0
 40
7.0
 40
8.0
 40
8.0
 40
8.0
 40
9.0
 40
9.0
 40
9.0
 40
10.0
 40
10.0
 40
10.0
 40
11.0
 40
11.0
 40
11.0
 40
12.0
 40
12.0
 40
12.0
 40
13.0
 40
13.0
 40
13.0
 40
14.0
 40
14.0
 40
14.0
 40
15.0
 40
15.0
 40
15.0
 40
16.0
 40
16.0
 40
16.0
 40
17.0
 40
17.0
 40
17.0
 40
18.0
 40
18.0
 40
18.0
 40
19.0
 40
19.0
 40
19.0
 40
20.0
 40
20.0
 40
20.0
 40
21.0
 40
21.0
 40
21.0
 40
22.0
 40
22.0
 40
22.0
 40
23.0
 40
23.0
 40
23.0
 40
24.0
 40
24.0
 40
24.0
 40
25.0
 40
25.0
 40
25.0
 40
26.0
 40
26.0
 40
26.0
 40
26.0
 10
112.5243977583272
 20
177.2022758888592
 10
106.8461913795385
 20
177.2022758888592
 10
103.1144639499158
 20
173.1868448460262
 10
103.1144639499158
 20
167.8738185886739
 10
103.1144639499158
 20
167.8738185886739
 10
103.1144639499158
 20
160.9784599749464
 10
103.1144639499158
 20
160.9784599749464
 10
103.1144639499158
 20
160.9784599749464
 10
98.7746771671466
 20
160.9784599749464
 10
98.7746771671466
 20
160.9784599749464
 10
98.7746771671466
 20
160.9784599749464
 10
98.7746771671466
 20
166.1702188712179
 10
98.7746771671466
 20
166.1702188712179
 10
98.7746771671466
 20
172.2540852433948
 10
94.35375838569976
 20
177.2022758888592
 10
88.0669758894416
 20
177.2022758888592
 10
81.73971352123174
 20
177.2022758888592
 10
77.31879473978489
 20
172.2540852433948
 10
77.31879473978489
 20
166.3324828685731
 10
77.31879473978489
 20
160.4920124924291
 10
81.69923364928006
 20
155.7870455882234
 10
87.5397040254241
 20
155.7870455882234
 10
87.5397040254241
 20
155.7870455882234
 10
91.27125920027247
 20
155.7870455882234
 10
91.27125920027247
 20
155.7870455882234
 10
91.27125920027247
 20
155.7870455882234
 10
91.27125920027247
 20
160.9784599749464
 10
91.27125920027247
 20
160.9784599749464
 10
91.27125920027247
 20
160.9784599749464
 10
88.18876001484517
 20
160.9784599749464
 10
88.18876001484517
 20
160.9784599749464
 10
85.10626082941788
 20
160.9784599749464
 10
82.71329750536334
 20
163.2498114283716
 10
82.71329750536334
 20
166.3324828685731
 10
82.71329750536334
 20
169.4554619259521
 10
85.10626082941788
 20
172.0106892473619
 10
88.0669758894416
 20
172.0106892473619
 10
91.02786320423957
 20
172.0106892473619
 10
93.4208265282941
 20
169.3745021820487
 10
93.4208265282941
 20
166.1702188712179
 10
93.4208265282941
 20
166.1702188712179
 10
93.4208265282941
 20
160.9784599749464
 10
93.4208265282941
 20
160.9784599749464
 10
93.4208265282941
 20
160.9784599749464
 10
93.4208265282941
 20
155.7870455882234
 10
93.4208265282941
 20
155.7870455882234
 10
93.4208265282941
 20
155.7870455882234
 10
98.7746771671466
 20
155.7870455882234
 10
98.7746771671466
 20
155.7870455882234
 10
98.7746771671466
 20
155.7870455882234
 10
103.1144639499158
 20
155.7870455882234
 10
103.1144639499158
 20
155.7870455882234
 10
103.1144639499158
 20
155.7870455882234
 10
108.4681423339941
 20
155.7870455882234
 10
108.4681423339941
 20
155.7870455882234
 10
108.4681423339941
 20
155.7870455882234
 10
108.4681423339941
 20
160.9784599749464
 10
108.4681423339941
 20
160.9784599749464
 10
108.4681423339941
 20
160.9784599749464
 10
108.4681423339941
 20
167.9950859497547
 10
108.4681423339941
 20
167.9950859497547
 10
108.4681423339941
 20
170.3477416566318
 10
110.1720865609987
 20
171.970037120636
 10
112.5243977583272
 20
171.970037120636
 10
116.0528645543201
 20
171.970037120636
 10
116.4586968024825
 20
169.1715860579675
 10
116.4586968024825
 20
167.9950859497547
 10
116.4586968024825
 20
167.9950859497547
 10
116.4586968024825
 20
166.9408867312683
 10
116.4586968024825
 20
166.9408867312683
 10
116.4586968024825
 20
166.9408867312683
 10
121.8123751865608
 20
166.9408867312683
 10
121.8123751865608
 20
166.9408867312683
 10
121.8123751865608
 20
166.9408867312683
 10
121.8123751865608
 20
167.8738185886739
 10
121.8123751865608
 20
167.8738185886739
 10
121.8123751865608
 20
173.3491088433815
 10
118.3648681344713
 20
177.2022758888592
 10
112.5243977583272
 20
177.2022758888592
 97
        0
 75
     2
 76
     1
 98
        0
  0
SPLINE
  5
4F
330
3C
100
AcDbEntity
  8
LAYER_1
100
AcDbSpline
210
0.0
220
0.0
230
1.0
 70
    11
 71
     3
 72
    62
 73
    58
 74
     0
 42
0.0000000001
 43
0.0000000001
 40
0.0
 40
0.0
 40
0.0
 40
0.0
 40
1.0
 40
1.0
 40
1.0
 40
2.0
 40
2.0
 40
2.0
 40
3.0
 40
3.0
 40
3.0
 40
4.0
 40
4.0
 40
4.0
 40
5.0
 40
5.0
 40
5.0
 40
6.0
 40
6.0
 40
6.0
 40
7.0
 40
7.0
 40
7.0
 40
8.0
 40
8.0
 40
8.0
 40
9.0
 40
9.0
 40
9.0
 40
10.0
 40
10.0
 40
10.0
 40
11.0
 40
11.0
 40
11.0
 40
12.0
 40
12.0
 40
12.0
 40
13.0
 40
13.0
 40
13.0
 40
14.0
 40
14.0
 40
14.0
 40
15.0
 40
15.0
 40
15.0
 40
16.0
 40
16.0
 40
16.0
 40
17.0
 40
17.0
 40
17.0
 40
18.0
 40
18.0
 40
18.0
 40
19.0
 40
19.0
 40
19.0
 40
19.0
 10
153.4176811682428
 20
177.2022758888592
 30
0.0
 10
147.739474789454
 20
177.2022758888592
 30
0.0
 10
144.0080918693799
 20
173.1868448460262
 30
0.0
 10
144.0080918693799
 20
167.8738185886739
 30
0.0
 10
144.0080918693799
 20
167.8738185886739
 30
0.0
 10
144.0080918693799
 20
160.6945841069618
 30
0.0
 10
144.0080918693799
 20
160.6945841069618
 30
0.0
 10
144.0080918693799
 20
160.6945841069618
 30
0.0
 10
139.1815130945449
 20
160.6945841069618
 30
0.0
 10
139.1815130945449
 20
160.6945841069618
 30
0.0
 10
139.1815130945449
 20
160.6945841069618
 30
0.0
 10
139.1815130945449
 20
176.6750040248417
 30
0.0
 10
139.1815130945449
 20
176.6750040248417
 30
0.0
 10
139.1815130945449
 20
176.6750040248417
 30
0.0
 10
133.8274902009181
 20
176.6750040248417
 30
0.0
 10
133.8274902009181
 20
176.6750040248417
 30
0.0
 10
133.8274902009181
 20
176.6750040248417
 30
0.0
 10
133.8274902009181
 20
160.6945841069618
 30
0.0
 10
133.8274902009181
 20
160.6945841069618
 30
0.0
 10
133.8274902009181
 20
160.6945841069618
 30
0.0
 10
133.8274902009181
 20
155.7870455882234
 30
0.0
 10
133.8274902009181
 20
155.7870455882234
 30
0.0
 10
133.8274902009181
 20
155.7870455882234
 30
0.0
 10
139.1815130945449
 20
155.7870455882234
 30
0.0
 10
139.1815130945449
 20
155.7870455882234
 30
0.0
 10
139.1815130945449
 20
155.7870455882234
 30
0.0
 10
144.0080918693799
 20
155.7870455882234
 30
0.0
 10
144.0080918693799
 20
155.7870455882234
 30
0.0
 10
144.0080918693799
 20
155.7870455882234
 30
0.0
 10
149.3617702534582
 20
155.7870455882234
 30
0.0
 10
149.3617702534582
 20
155.7870455882234
 30
0.0
 10
149.3617702534582
 20
155.7870455882234
 30
0.0
 10
149.3617702534582
 20
160.6945841069618
 30
0.0
 10
149.3617702534582
 20
160.6945841069618
 30
0.0
 10
149.3617702534582
 20
160.6945841069618
 30
0.0
 10
149.3617702534582
 20
167.9950859497547
 30
0.0
 10
149.3617702534582
 20
167.9950859497547
 30
0.0
 10
149.3617702534582
 20
170.3477416566318
 30
0.0
 10
151.0653699709142
 20
171.970037120636
 30
0.0
 10
153.4176811682428
 20
171.970037120636
 30
0.0
 10
156.9464924737842
 20
171.970037120636
 30
0.0
 10
157.3519802123981
 20
169.1715860579675
 30
0.0
 10
157.3519802123981
 20
167.9950859497547
 30
0.0
 10
157.3519802123981
 20
167.9950859497547
 30
0.0
 10
157.3519802123981
 20
155.7870455882234
 30
0.0
 10
157.3519802123981
 20
155.7870455882234
 30
0.0
 10
158.7727375905152
 20
155.7870455882234
 30
0.0
 10
160.1938394781807
 20
155.7870455882234
 30
0.0
 10
161.6145968562977
 20
155.7870455882234
 30
0.0
 10
162.1520317519967
 20
155.774987754025
 30
0.0
 10
162.7060031060249
 20
156.0884914431827
 30
0.0
 10
162.7060031060249
 20
157.2305405965431
 30
0.0
 10
162.7060031060249
 20
157.2305405965431
 30
0.0
 10
162.7060031060249
 20
167.8738185886739
 30
0.0
 10
162.7060031060249
 20
167.8738185886739
 30
0.0
 10
162.7060031060249
 20
173.3491088433815
 30
0.0
 10
159.2581515443869
 20
177.2022758888592
 30
0.0
 10
153.4176811682428
 20
177.2022758888592
 30
0.0
  0
HATCH
  5
50
330
3C
100
AcDbEntity
  8
LAYER_1
 62
     7
100
AcDbHatch
 10
0.0
 20
0.0
 30
0.0
210
0.0
220
0.0
230
1.0
  2
SOLID
 70
     1
 71
     0
 91
        1
 92
        1
 93
        1
 72
     4
 94
        3
 73
     0
 74
     1
 95
       62
 96
       58
 40
0.0
 40
0.0
 40
0.0
 40
0.0
 40
1.0
 40
1.0
 40
1.0
 40
2.0
 40
2.0
 40
2.0
 40
3.0
 40
3.0
 40
3.0
 40
4.0
 40
4.0
 40
4.0
 40
5.0
 40
5.0
 40
5.0
 40
6.0
 40
6.0
 40
6.0
 40
7.0
 40
7.0
 40
7.0
 40
8.0
 40
8.0
 40
8.0
 40
9.0
 40
9.0
 40
9.0
 40
10.0
 40
10.0
 40
10.0
 40
11.0
 40
11.0
 40
11.0
 40
12.0
 40
12.0
 40
12.0
 40
13.0
 40
13.0
 40
13.0
 40
14.0
 40
14.0
 40
14.0
 40
15.0
 40
15.0
 40
15.0
 40
16.0
 40
16.0
 40
16.0
 40
17.0
 40
17.0
 40
17.0
 40
18.0
 40
18.0
 40
18.0
 40
19.0
 40
19.0
 40
19.0
 40
19.0
 10
153.4176811682428
 20
177.2022758888592
 10
147.739474789454
 20
177.2022758888592
 10
144.0080918693799
 20
173.1868448460262
 10
144.0080918693799
 20
167.8738185886739
 10
144.0080918693799
 20
167.8738185886739
 10
144.0080918693799
 20
160.6945841069618
 10
144.0080918693799
 20
160.6945841069618
 10
144.0080918693799
 20
160.6945841069618
 10
139.1815130945449
 20
160.6945841069618
 10
139.1815130945449
 20
160.6945841069618
 10
139.1815130945449
 20
160.6945841069618
 10
139.1815130945449
 20
176.6750040248417
 10
139.1815130945449
 20
176.6750040248417
 10
139.1815130945449
 20
176.6750040248417
 10
133.8274902009181
 20
176.6750040248417
 10
133.8274902009181
 20
176.6750040248417
 10
133.8274902009181
 20
176.6750040248417
 10
133.8274902009181
 20
160.6945841069618
 10
133.8274902009181
 20
160.6945841069618
 10
133.8274902009181
 20
160.6945841069618
 10
133.8274902009181
 20
155.7870455882234
 10
133.8274902009181
 20
155.7870455882234
 10
133.8274902009181
 20
155.7870455882234
 10
139.1815130945449
 20
155.7870455882234
 10
139.1815130945449
 20
155.7870455882234
 10
139.1815130945449
 20
155.7870455882234
 10
144.0080918693799
 20
155.7870455882234
 10
144.0080918693799
 20
155.7870455882234
 10
144.0080918693799
 20
155.7870455882234
 10
149.3617702534582
 20
155.7870455882234
 10
149.3617702534582
 20
155.7870455882234
 10
149.3617702534582
 20
155.7870455882234
 10
149.3617702534582
 20
160.6945841069618
 10
149.3617702534582
 20
160.6945841069618
 10
149.3617702534582
 20
160.6945841069618
 10
149.3617702534582
 20
167.9950859497547
 10
149.3617702534582
 20
167.9950859497547
 10
149.3617702534582
 20
170.3477416566318
 10
151.0653699709142
 20
171.970037120636
 10
153.4176811682428
 20
171.970037120636
 10
156.9464924737842
 20
171.970037120636
 10
157.3519802123981
 20
169.1715860579675
 10
157.3519802123981
 20
167.9950859497547
 10
157.3519802123981
 20
167.9950859497547
 10
157.3519802123981
 20
155.7870455882234
 10
157.3519802123981
 20
155.7870455882234
 10
158.7727375905152
 20
155.7870455882234
 10
160.1938394781807
 20
155.7870455882234
 10
161.6145968562977
 20
155.7870455882234
 10
162.1520317519967
 20
155.774987754025
 10
162.7060031060249
 20
156.0884914431827
 10
162.7060031060249
 20
157.2305405965431
 10
162.7060031060249
 20
157.2305405965431
 10
162.7060031060249
 20
167.8738185886739
 10
162.7060031060249
 20
167.8738185886739
 10
162.7060031060249
 20
173.3491088433815
 10
159.2581515443869
 20
177.2022758888592
 10
153.4176811682428
 20
177.2022758888592
 97
        0
 75
     2
 76
     1
 98
        0
  0
ENDBLK
  5
3F
330
3C
100
AcDbEntity
  8
0
100
AcDbBlockEnd
  0
ENDSEC
  0
SECTION
  2
ENTITIES
  0
INSERT
  5
3D
330
1F
100
AcDbEntity
  8
LAYER_1
100
AcDbBlockReference
  2
BLOCK_2
 10
0.0
 20
0.0
 30
0.0
  0
ENDSEC
  0
SECTION
  2
OBJECTS
  0
DICTIONARY
  5
C
330
0
100
AcDbDictionary
  3
ACAD_GROUP
350
D
  3
ACAD_LAYOUT
350
1A
  3
ACAD_MLINESTYLE
350
17
  3
ACAD_PLOTSETTINGS
350
19
  3
ACAD_TABLESTYLE
350
71
  3
ACAD_VISUALSTYLE
350
2A
  3
ACDBHEADERROUNDTRIPXREC
350
51
  0
DICTIONARY
  5
D
102
{ACAD_REACTORS
330
C
102
}
330
C
100
AcDbDictionary
  0
DICTIONARY
  5
1A
102
{ACAD_REACTORS
330
C
102
}
330
C
100
AcDbDictionary
  0
DICTIONARY
  5
17
102
{ACAD_REACTORS
330
C
102
}
330
C
100
AcDbDictionary
  3
STANDARD
350
18
  0
DICTIONARY
  5
19
102
{ACAD_REACTORS
330
C
102
}
330
C
100
AcDbDictionary
  0
DICTIONARY
  5
71
102
{ACAD_REACTORS
330
C
102
}
330
C
100
AcDbDictionary
  0
DICTIONARY
  5
2A
102
{ACAD_REACTORS
330
C
102
}
330
C
100
AcDbDictionary
  3
2DWIREFRAME
350
2F
  3
3DWIREFRAME
350
30
  3
3D_HIDDEN
350
31
  3
BASIC
350
32
  3
BRIGHTEN
350
36
  3
COLORCHANGE
350
3A
  3
CONCEPTUAL
350
34
  3
DIM
350
35
  3
FACEPATTERN
350
39
  3
FLAT
350
2B
  3
FLATWITHEDGES
350
2C
  3
GOURAUD
350
2D
  3
GOURAUDWITHEDGES
350
2E
  3
LINEPATTERN
350
38
  3
REALISTIC
350
33
  3
THICKEN
350
37
  0
DICTIONARY
  5
51
102
{ACAD_REACTORS
330
C
102
}
330
C
100
AcDbDictionary
  3
CEPSNTYPE
350
5A
  3
DIMSTYLEDATA
350
70
  3
FINGERPRINTGUID
350
5B
  3
HYPERLINKBASE
350
54
  3
INSUNITS
350
59
  3
LAYOUTDICT
350
56
  3
LWETCUNION
350
58
  3
PLOTSETDICT
350
57
  3
PSVPSCALE
350
5D
  3
PUCSBASE
350
60
  3
PUCSORGBACK
350
66
  3
PUCSORGBOTTOM
350
62
  3
PUCSORGFRONT
350
65
  3
PUCSORGLEFT
350
63
  3
PUCSORGRIGHT
350
64
  3
PUCSORGTOP
350
61
  3
PUCSORTHOREF
350
5E
  3
PUCSORTHOVIEW
350
5F
  3
STYLESHEET
350
55
  3
TSTACKALIGN
350
52
  3
TSTACKSIZE
350
53
  3
UCSBASE
350
69
  3
UCSORGBACK
350
6F
  3
UCSORGBOTTOM
350
6B
  3
UCSORGFRONT
350
6E
  3
UCSORGLEFT
350
6C
  3
UCSORGRIGHT
350
6D
  3
UCSORGTOP
350
6A
  3
UCSORTHOREF
350
67
  3
UCSORTHOVIEW
350
68
  3
VERSIONGUID
350
5C
  0
MLINESTYLE
  5
18
102
{ACAD_REACTORS
330
17
102
}
330
17
100
AcDbMlineStyle
  2
Standard
 70
     0
  3

 62
   256
 51
90.0
 52
90.0
 71
     2
 49
0.5
 62
   256
  6
BYLAYER
 49
-0.5
 62
   256
  6
BYLAYER
  0
VISUALSTYLE
  5
2F
102
{ACAD_REACTORS
330
2A
102
}
330
2A
100
AcDbVisualStyle
  2
2dWireframe
 70
     4
 71
     0
 72
     2
 73
     0
 90
        0
 40
-0.6
 41
-30.0
 62
     5
 63
     7
 74
     1
 91
        4
 64
     7
 65
   257
 75
     1
175
     1
 42
1.0
 92
        0
 66
   257
 43
1.0
 76
     1
 77
     6
 78
     2
 67
     7
 79
     5
170
     0
171
     0
290
     0
174
     0
 93
        1
 44
0.0
173
     0
291
     0
 45
0.0
1001
ACAD
1000
AcDbSavedByObjectVersion
1070
     0
  0
VISUALSTYLE
  5
30
102
{ACAD_REACTORS
330
2A
102
}
330
2A
100
AcDbVisualStyle
  2
3dWireframe
 70
     5
 71
     0
 72
     2
 73
     0
 90
        0
 40
-0.6
 41
-30.0
 62
     5
 63
     7
 74
     1
 91
        4
 64
     7
 65
   257
 75
     1
175
     1
 42
1.0
 92
        0
 66
   257
 43
1.0
 76
     1
 77
     6
 78
     2
 67
     7
 79
     5
170
     0
171
     0
290
     0
174
     0
 93
        1
 44
0.0
173
     0
291
     0
 45
0.0
1001
ACAD
1000
AcDbSavedByObjectVersion
1070
     0
  0
VISUALSTYLE
  5
31
102
{ACAD_REACTORS
330
2A
102
}
330
2A
100
AcDbVisualStyle
  2
3D Hidden
 70
     6
 71
     1
 72
     2
 73
     2
 90
        0
 40
-0.6
 41
-30.0
 62
     5
 63
     7
 74
     2
 91
        2
 64
     7
 65
   257
 75
     2
175
     1
 42
40.0
 92
        0
 66
   257
 43
1.0
 76
     1
 77
     6
 78
     2
 67
     7
 79
     3
170
     0
171
     0
290
     0
174
     0
 93
        1
 44
0.0
173
     0
291
     0
 45
0.0
1001
ACAD
1000
AcDbSavedByObjectVersion
1070
     0
  0
VISUALSTYLE
  5
32
102
{ACAD_REACTORS
330
2A
102
}
330
2A
100
AcDbVisualStyle
  2
Basic
 70
     7
 71
     1
 72
     0
 73
     1
 90
        0
 40
-0.6
 41
-30.0
 62
     5
 63
     7
 74
     0
 91
        4
 64
     7
 65
   257
 75
     1
175
     1
 42
1.0
 92
        8
 66
     7
 43
1.0
 76
     1
 77
     6
 78
     2
 67
     7
 79
     5
170
     0
171
     0
290
     0
174
     0
 93
        1
 44
0.0
173
     0
291
     1
 45
0.0
1001
ACAD
1000
AcDbSavedByObjectVersion
1070
     0
  0
VISUALSTYLE
  5
36
102
{ACAD_REACTORS
330
2A
102
}
330
2A
100
AcDbVisualStyle
  2
Brighten
 70
    12
 71
     2
 72
     2
 73
     0
 90
        0
 40
-0.6
 41
-30.0
 62
     5
 63
     7
 74
     1
 91
        4
 64
     7
 65
   257
 75
     1
175
     1
 42
1.0
 92
        8
 66
     7
 43
1.0
 76
     1
 77
     6
 78
     2
 67
     7
 79
     5
170
     0
171
     0
290
     0
174
     0
 93
        1
 44
50.0
173
     0
291
     1
 45
0.0
1001
ACAD
1000
AcDbSavedByObjectVersion
1070
     0
  0
VISUALSTYLE
  5
3A
102
{ACAD_REACTORS
330
2A
102
}
330
2A
100
AcDbVisualStyle
  2
ColorChange
 70
    16
 71
     2
 72
     2
 73
     3
 90
        0
 40
-0.6
 41
-30.0
 62
     5
 63
     8
 74
     1
 91
        4
 64
     7
 65
   257
 75
     1
175
     1
 42
1.0
 92
        8
 66
     8
 43
1.0
 76
     1
 77
     6
 78
     2
 67
     7
 79
     5
170
     0
171
     0
290
     0
174
     0
 93
        1
 44
0.0
173
     0
291
     1
 45
0.0
1001
ACAD
1000
AcDbSavedByObjectVersion
1070
     0
  0
VISUALSTYLE
  5
34
102
{ACAD_REACTORS
330
2A
102
}
330
2A
100
AcDbVisualStyle
  2
Conceptual
 70
     9
 71
     3
 72
     2
 73
     0
 90
        0
 40
-0.6
 41
-30.0
 62
     5
 63
     7
 74
     2
 91
        2
 64
     7
 65
   257
 75
     1
175
     1
 42
40.0
 92
        8
 66
     7
 43
1.0
 76
     1
 77
     6
 78
     2
 67
     7
 79
     3
170
     0
171
     0
290
     0
174
     0
 93
        1
 44
0.0
173
     0
291
     0
 45
0.0
1001
ACAD
1000
AcDbSavedByObjectVersion
1070
     0
  0
VISUALSTYLE
  5
35
102
{ACAD_REACTORS
330
2A
102
}
330
2A
100
AcDbVisualStyle
  2
Dim
 70
    11
 71
     2
 72
     2
 73
     0
 90
        0
 40
-0.6
 41
-30.0
 62
     5
 63
     7
 74
     1
 91
        4
 64
     7
 65
   257
 75
     1
175
     1
 42
1.0
 92
        8
 66
     7
 43
1.0
 76
     1
 77
     6
 78
     2
 67
     7
 79
     5
170
     0
171
     0
290
     0
174
     0
 93
        1
 44
-50.0
173
     0
291
     1
 45
0.0
1001
ACAD
1000
AcDbSavedByObjectVersion
1070
     0
  0
VISUALSTYLE
  5
39
102
{ACAD_REACTORS
330
2A
102
}
330
2A
100
AcDbVisualStyle
  2
Facepattern
 70
    15
 71
     2
 72
     2
 73
     0
 90
        0
 40
-0.6
 41
-30.0
 62
     5
 63
     7
 74
     1
 91
        4
 64
     7
 65
   257
 75
     1
175
     1
 42
1.0
 92
        8
 66
     7
 43
1.0
 76
     1
 77
     6
 78
     2
 67
     7
 79
     5
170
     0
171
     0
290
     0
174
     0
 93
        1
 44
0.0
173
     0
291
     1
 45
0.0
1001
ACAD
1000
AcDbSavedByObjectVersion
1070
     0
  0
VISUALSTYLE
  5
2B
102
{ACAD_REACTORS
330
2A
102
}
330
2A
100
AcDbVisualStyle
  2
Flat
 70
     0
 71
     2
 72
     1
 73
     1
 90
        2
 40
-0.6
 41
30.0
 62
     5
 63
     7
 74
     0
 91
        4
 64
     7
 65
   257
 75
     1
175
     1
 42
1.0
 92
        8
 66
     7
 43
1.0
 76
     1
 77
     6
 78
     2
 67
     7
 79
     5
170
     0
171
     0
290
     0
174
     0
 93
       13
 44
0.0
173
     0
291
     1
 45
0.0
1001
ACAD
1000
AcDbSavedByObjectVersion
1070
     0
  0
VISUALSTYLE
  5
2C
102
{ACAD_REACTORS
330
2A
102
}
330
2A
100
AcDbVisualStyle
  2
FlatWithEdges
 70
     1
 71
     2
 72
     1
 73
     1
 90
        2
 40
-0.6
 41
30.0
 62
     5
 63
     7
 74
     1
 91
        4
 64
     7
 65
   257
 75
     1
175
     1
 42
1.0
 92
        0
 66
   257
 43
1.0
 76
     1
 77
     6
 78
     2
 67
     7
 79
     5
170
     0
171
     0
290
     0
174
     0
 93
       13
 44
0.0
173
     0
291
     1
 45
0.0
1001
ACAD
1000
AcDbSavedByObjectVersion
1070
     0
  0
VISUALSTYLE
  5
2D
102
{ACAD_REACTORS
330
2A
102
}
330
2A
100
AcDbVisualStyle
  2
Gouraud
 70
     2
 71
     2
 72
     2
 73
     1
 90
        2
 40
-0.6
 41
30.0
 62
     5
 63
     7
 74
     0
 91
        4
 64
     7
 65
   257
 75
     1
175
     1
 42
1.0
 92
        0
 66
     7
 43
1.0
 76
     1
 77
     6
 78
     2
 67
     7
 79
     5
170
     0
171
     0
290
     0
174
     0
 93
       13
 44
0.0
173
     0
291
     1
 45
0.0
1001
ACAD
1000
AcDbSavedByObjectVersion
1070
     0
  0
VISUALSTYLE
  5
2E
102
{ACAD_REACTORS
330
2A
102
}
330
2A
100
AcDbVisualStyle
  2
GouraudWithEdges
 70
     3
 71
     2
 72
     2
 73
     1
 90
        2
 40
-0.6
 41
30.0
 62
     5
 63
     7
 74
     1
 91
        4
 64
     7
 65
   257
 75
     1
175
     1
 42
1.0
 92
        0
 66
   257
 43
1.0
 76
     1
 77
     6
 78
     2
 67
     7
 79
     5
170
     0
171
     0
290
     0
174
     0
 93
       13
 44
0.0
173
     0
291
     1
 45
0.0
1001
ACAD
1000
AcDbSavedByObjectVersion
1070
     0
  0
VISUALSTYLE
  5
38
102
{ACAD_REACTORS
330
2A
102
}
330
2A
100
AcDbVisualStyle
  2
Linepattern
 70
    14
 71
     2
 72
     2
 73
     0
 90
        0
 40
-0.6
 41
-30.0
 62
     5
 63
     7
 74
     1
 91
        4
 64
     7
 65
   257
 75
     7
175
     7
 42
1.0
 92
        8
 66
     7
 43
1.0
 76
     1
 77
     6
 78
     2
 67
     7
 79
     5
170
     0
171
     0
290
     0
174
     0
 93
        1
 44
0.0
173
     0
291
     1
 45
0.0
1001
ACAD
1000
AcDbSavedByObjectVersion
1070
     0
  0
VISUALSTYLE
  5
33
102
{ACAD_REACTORS
330
2A
102
}
330
2A
100
AcDbVisualStyle
  2
Realistic
 70
     8
 71
     2
 72
     2
 73
     0
 90
        0
 40
-0.6
 41
-30.0
 62
     5
 63
     7
 74
     1
 91
        0
 64
     7
 65
   257
 75
     1
175
     1
 42
1.0
 92
        8
 66
     8
 43
1.0
 76
     1
 77
     6
 78
     2
 67
     7
 79
     5
170
     0
171
     0
290
     0
174
     0
 93
       13
 44
0.0
173
     0
291
     0
 45
0.0
1001
ACAD
1000
AcDbSavedByObjectVersion
1070
     0
  0
VISUALSTYLE
  5
37
102
{ACAD_REACTORS
330
2A
102
}
330
2A
100
AcDbVisualStyle
  2
Thicken
 70
    13
 71
     2
 72
     2
 73
     0
 90
        0
 40
-0.6
 41
-30.0
 62
     5
 63
     7
 74
     1
 91
        4
 64
     7
 65
   257
 75
     1
175
     1
 42
1.0
 92
       12
 66
     7
 43
1.0
 76
     1
 77
     6
 78
     2
 67
     7
 79
     5
170
     0
171
     0
290
     0
174
     0
 93
        1
 44
0.0
173
     0
291
     1
 45
0.0
1001
ACAD
1000
AcDbSavedByObjectVersion
1070
     0
  0
XRECORD
  5
5A
102
{ACAD_REACTORS
330
51
102
}
330
51
100
AcDbXrecord
 90
        0
  0
XRECORD
  5
70
102
{ACAD_REACTORS
330
51
102
}
330
51
100
AcDbXrecord
1000
DSTYLE
1002
{
1070
   340
340
11
1002
}
  0
XRECORD
  5
5B
102
{ACAD_REACTORS
330
51
102
}
330
51
100
AcDbXrecord
  1
{C50F1A3D-B56C-0FA7-AEEF-1DD121F003CB}
  0
XRECORD
  5
54
102
{ACAD_REACTORS
330
51
102
}
330
51
100
AcDbXrecord
  1

  0
XRECORD
  5
59
102
{ACAD_REACTORS
330
51
102
}
330
51
100
AcDbXrecord
 90
        1
  0
XRECORD
  5
56
102
{ACAD_REACTORS
330
51
102
}
330
51
100
AcDbXrecord
340
1A
  0
XRECORD
  5
58
102
{ACAD_REACTORS
330
51
102
}
330
51
100
AcDbXrecord
 90
    10269
  0
XRECORD
  5
57
102
{ACAD_REACTORS
330
51
102
}
330
51
100
AcDbXrecord
340
19
  0
XRECORD
  5
5D
102
{ACAD_REACTORS
330
51
102
}
330
51
100
AcDbXrecord
 40
0.0
  0
XRECORD
  5
60
102
{ACAD_REACTORS
330
51
102
}
330
51
100
AcDbXrecord
340
0
  0
XRECORD
  5
66
102
{ACAD_REACTORS
330
51
102
}
330
51
100
AcDbXrecord
 10
0.0
 20
0.0
 30
0.0
  0
XRECORD
  5
62
102
{ACAD_REACTORS
330
51
102
}
330
51
100
AcDbXrecord
 10
0.0
 20
0.0
 30
0.0
  0
XRECORD
  5
65
102
{ACAD_REACTORS
330
51
102
}
330
51
100
AcDbXrecord
 10
0.0
 20
0.0
 30
0.0
  0
XRECORD
  5
63
102
{ACAD_REACTORS
330
51
102
}
330
51
100
AcDbXrecord
 10
0.0
 20
0.0
 30
0.0
  0
XRECORD
  5
64
102
{ACAD_REACTORS
330
51
102
}
330
51
100
AcDbXrecord
 10
0.0
 20
0.0
 30
0.0
  0
XRECORD
  5
61
102
{ACAD_REACTORS
330
51
102
}
330
51
100
AcDbXrecord
 10
0.0
 20
0.0
 30
0.0
  0
XRECORD
  5
5E
102
{ACAD_REACTORS
330
51
102
}
330
51
100
AcDbXrecord
340
0
  0
XRECORD
  5
5F
102
{ACAD_REACTORS
330
51
102
}
330
51
100
AcDbXrecord
 70
     0
  0
XRECORD
  5
55
102
{ACAD_REACTORS
330
51
102
}
330
51
100
AcDbXrecord
  1

  0
XRECORD
  5
52
102
{ACAD_REACTORS
330
51
102
}
330
51
100
AcDbXrecord
 90
        1
  0
XRECORD
  5
53
102
{ACAD_REACTORS
330
51
102
}
330
51
100
AcDbXrecord
 90
       70
  0
XRECORD
  5
69
102
{ACAD_REACTORS
330
51
102
}
330
51
100
AcDbXrecord
340
0
  0
XRECORD
  5
6F
102
{ACAD_REACTORS
330
51
102
}
330
51
100
AcDbXrecord
 10
0.0
 20
0.0
 30
0.0
  0
XRECORD
  5
6B
102
{ACAD_REACTORS
330
51
102
}
330
51
100
AcDbXrecord
 10
0.0
 20
0.0
 30
0.0
  0
XRECORD
  5
6E
102
{ACAD_REACTORS
330
51
102
}
330
51
100
AcDbXrecord
 10
0.0
 20
0.0
 30
0.0
  0
XRECORD
  5
6C
102
{ACAD_REACTORS
330
51
102
}
330
51
100
AcDbXrecord
 10
0.0
 20
0.0
 30
0.0
  0
XRECORD
  5
6D
102
{ACAD_REACTORS
330
51
102
}
330
51
100
AcDbXrecord
 10
0.0
 20
0.0
 30
0.0
  0
XRECORD
  5
6A
102
{ACAD_REACTORS
330
51
102
}
330
51
100
AcDbXrecord
 10
0.0
 20
0.0
 30
0.0
  0
XRECORD
  5
67
102
{ACAD_REACTORS
330
51
102
}
330
51
100
AcDbXrecord
340
0
  0
XRECORD
  5
68
102
{ACAD_REACTORS
330
51
102
}
330
51
100
AcDbXrecord
 70
     0
  0
XRECORD
  5
5C
102
{ACAD_REACTORS
330
51
102
}
330
51
100
AcDbXrecord
  1
{FAEB1C32-E019-11D5-929B-00C0DF256EC4}
  0
ENDSEC
  0
EOF
