<?xml version="1.0" encoding="UTF-8" standalone="no"?>
<!-- Created with Inkscape (http://www.inkscape.org/) -->

<svg
   xmlns:dc="http://purl.org/dc/elements/1.1/"
   xmlns:cc="http://creativecommons.org/ns#"
   xmlns:rdf="http://www.w3.org/1999/02/22-rdf-syntax-ns#"
   xmlns:svg="http://www.w3.org/2000/svg"
   xmlns="http://www.w3.org/2000/svg"
   xmlns:sodipodi="http://sodipodi.sourceforge.net/DTD/sodipodi-0.dtd"
   xmlns:inkscape="http://www.inkscape.org/namespaces/inkscape"
   width="297mm"
   height="210mm"
   viewBox="0 0 1052.3622 744.09448"
   id="svg3359"
   version="1.1"
   inkscape:version="0.91 r13725"
   sodipodi:docname="marlin-old.svg"
   inkscape:export-filename="C:\Users\jbrazio\Desktop\marlin-old.png"
   inkscape:export-xdpi="27"
   inkscape:export-ydpi="27">
  <title
     id="title3362">Marlin Firmware</title>
  <defs
     id="defs3361" />
  <sodipodi:namedview
     id="base"
     pagecolor="#ffffff"
     bordercolor="#666666"
     borderopacity="1.0"
     inkscape:pageopacity="0.0"
     inkscape:pageshadow="2"
     inkscape:zoom="0.95552381"
     inkscape:cx="526.1811"
     inkscape:cy="372.04724"
     inkscape:document-units="px"
     inkscape:current-layer="layer1"
     showgrid="false"
     inkscape:window-width="1234"
     inkscape:window-height="878"
     inkscape:window-x="365"
     inkscape:window-y="46"
     inkscape:window-maximized="0" />
  <metadata
     id="metadata3364">
    <rdf:RDF>
      <cc:Work
         rdf:about="">
        <dc:format>image/svg+xml</dc:format>
        <dc:type
           rdf:resource="http://purl.org/dc/dcmitype/StillImage" />
        <dc:title>Marlin Firmware</dc:title>
        <dc:creator>
          <cc:Agent>
            <dc:title>Ahmet Cem TURAN</dc:title>
          </cc:Agent>
        </dc:creator>
        <dc:rights>
          <cc:Agent>
            <dc:title>MarlinFirmware</dc:title>
          </cc:Agent>
        </dc:rights>
        <dc:publisher>
          <cc:Agent>
            <dc:title>João Brázio</dc:title>
          </cc:Agent>
        </dc:publisher>
        <dc:identifier>marlin-logo-old</dc:identifier>
      </cc:Work>
    </rdf:RDF>
  </metadata>
  <g
     inkscape:label="Layer 1"
     inkscape:groupmode="layer"
     id="layer1"
     transform="translate(0,-308.26772)">
    <g
       id="g3335"
       transform="matrix(1.2688266,0,0,1.2688266,0.33525798,503.35041)">
      <path
         id="path3337"
         d="m 364.271,4.24 -312.9,0.26 -7,2.33 c -21.42,7.13 -38.03,25.09 -42.99,46.47 -1.37,5.89 -1.53,17.24 -1.29,88.98 0.28,81.931 0.29,82.24 2.5,88.74 6.46,18.97 21.811,34.33 40.7,40.74 l 8.08,2.739 360,0.28 c 330.609,0.25 360.609,0.14 367.5,-1.37 24.069,-5.26 42.26,-22.859 48.46,-46.869 1.22,-4.74 1.54,-12.301 1.54,-36.91 0,-30.881 -0.006,-185.553 -0.006,-185.553 0,0 -152.264,-0.097 -464.594,0.163 z m 388.85,76.75 68.75,69.771 -0.011,33.87 c -0.02,37.899 -0.5,41.85 -6.529,53.32 -6.57,12.51 -19.25,23.039 -32.92,27.329 l -7.04,2.22 -361.5,0 -361.5,0 -6.5,-2.34 c -17.34,-6.229 -30.4,-19.24 -36.22,-36.05 l -2.28,-6.61 0,-83 0,-83 2.31,-6.69 c 6.78,-19.62 24.62,-34.88 44.13,-37.75 3.061,-0.45 146.19,-0.82 318.061,-0.82 l 312.5,-0.01 68.749,69.76 z"
         inkscape:connector-curvature="0" />
      <path
         id="path3339"
         d="m 540.871,119.04 c 0,57.4 0.229,68.15 1.59,74.75 4.97,24.069 21.26,37.209 46.149,37.209 l 8.311,0 -0.271,-14.629 -0.279,-14.631 -5.421,-0.439 c -6.039,-0.48 -9.51,-1.961 -12.76,-5.45 -4.87,-5.229 -4.8,-4.19 -5.109,-76.1 l -0.3,-67.75 -15.96,0 -15.949,0 0,67.04 z"
         inkscape:connector-curvature="0" />
      <path
         id="path3341"
         d="m 96.871,61.58 c -16.21,4.25 -30.58,15.65 -37.42,29.66 -6.641,13.59 -6.58,12.86 -6.58,77.82 0,55.529 0.1,58.72 1.83,60.29 1.52,1.37 4.22,1.649 16,1.649 l 14.17,0 0.01,-58.75 c 0,-37.39 0.38,-60.1 1.04,-62.47 2.66,-9.58 13.22,-17.63 24.31,-18.52 12.82,-1.03 23.841,5.09 28.75,15.95 l 2.391,5.29 0.29,59.25 0.3,59.25 15.95,0 15.96,0 0,-57.819 c 0,-63.17 0.05,-63.81 5.819,-71.77 3.94,-5.44 11.851,-9.53 19.62,-10.16 12.36,-0.99 22.79,4.57 28.351,15.11 l 2.71,5.14 0.29,59.75 0.279,59.75 15.971,0 15.96,0 0,-59.34 c 0,-55.37 -0.13,-59.85 -1.931,-66.89 C 257.952,93.08 253.622,85.52 244.981,76.9 233.152,65.1 220.402,60 202.691,60 c -16.14,0 -27.949,4.52 -39.109,14.95 l -6.391,5.98 -2.18,-2.96 c -3.8,-5.14 -15.83,-12.79 -24.359,-15.48 -6.351,-2.01 -9.86,-2.479 -18.08,-2.42 -5.611,0.03 -12.67,0.71 -15.701,1.51 z"
         inkscape:connector-curvature="0" />
      <path
         id="path3343"
         d="m 612.891,61.7 c -1.91,0.99 -4.5,3.33 -5.75,5.2 -2.04,3.05 -2.27,4.59 -2.27,15.25 l 0,11.85 16,0 16,0 0,-10.53 c 0,-11.8 -1.051,-15.37 -5.881,-19.91 -4.029,-3.79 -12.659,-4.68 -18.099,-1.86 z"
         inkscape:connector-curvature="0" />
      <path
         id="path3345"
         d="m 314.871,106.34 c -10.95,3.26 -17.54,7.22 -26.09,15.66 -8.91,8.79 -14.74,19.339 -17.471,31.621 -2.46,11.06 -1.59,26.26 2.07,36.379 5.53,15.24 16.53,27.931 29.99,34.57 9.78,4.83 18.38,6.391 35.25,6.41 l 14.25,0.02 0,-15.379 0,-15.391 -13.25,-0.4 c -11.601,-0.359 -13.94,-0.729 -18.8,-2.97 -7.62,-3.521 -12.37,-7.97 -15.66,-14.68 -2.391,-4.86 -2.79,-6.9 -2.79,-14.181 0,-7.27 0.399,-9.319 2.78,-14.16 3.38,-6.889 9.229,-12.93 15.529,-16.029 6.66,-3.28 19.771,-3.28 25.98,0 6.12,3.24 11.99,9.49 15.06,16.04 l 2.65,5.649 0.3,35.75 0.29,35.75 44.96,0 44.95,0 0.02,-39.25 c 0.03,-44.39 -0.01,-44.18 7.84,-50.899 11.42,-9.78 29.91,-7.05 36.24,5.34 1.27,2.5 2.29,6.92 2.63,11.44 l 0.561,7.369 15.85,0 15.86,0 0,-6.84 c 0,-8.149 -2.98,-20.56 -6.771,-28.14 -5.63,-11.29 -18.86,-21.31 -32.32,-24.48 -7.54,-1.78 -22.6,-2 -30.109,-0.44 -14.79,3.06 -29.391,14.09 -35.601,26.9 -5.58,11.49 -6.199,15.83 -6.199,43.21 l 0,24.791 -13,0 -13,0 0,-20.34 c 0,-16.97 -0.33,-21.619 -1.97,-28.05 -5.82,-22.75 -23.29,-40.45 -45.49,-46.09 -9.088,-2.32 -25.309,-1.93 -34.539,0.82 z"
         inkscape:connector-curvature="0" />
      <path
         id="path3347"
         d="m 705.081,105.56 c -18.091,4.86 -31.98,18.26 -37.771,36.439 -1.439,4.5 -1.84,10.381 -2.189,32.25 l -0.44,26.75 -13.91,0 -13.899,0 0,-47 0,-47 -16,0 -16,0 0,62 0,62 46,0 46,0 0,-36.449 c 0,-22.16 0.42,-38.41 1.069,-41.45 1.38,-6.431 5.771,-12.45 11.17,-15.31 3.391,-1.79 5.9,-2.26 12.261,-2.27 10.569,-0.03 16.04,2.91 19.899,10.66 l 2.601,5.21 0,39.811 0,39.799 13.89,0 c 12.189,0 14.18,-0.229 16.25,-1.91 l 2.36,-1.92 -0.011,-38.83 c 0,-33.729 -0.229,-39.67 -1.739,-45.129 -2.94,-10.681 -6.641,-17.25 -13.671,-24.28 -10.8,-10.79 -22.069,-14.98 -40.039,-14.86 -5.801,0.029 -12.922,0.699 -15.831,1.489 z"
         inkscape:connector-curvature="0" />
    </g>
  </g>
</svg>
