<?xml version="1.0" encoding="UTF-8" standalone="no"?>
<!--
  Graphic designed by Ahmnet Cem TURAN
  URL: https://github.com/ahmetcemturan
  License: CC-BY-NC-SA
-->
<svg
   xmlns:dc="http://purl.org/dc/elements/1.1/"
   xmlns:cc="http://creativecommons.org/ns#"
   xmlns:rdf="http://www.w3.org/1999/02/22-rdf-syntax-ns#"
   xmlns:svg="http://www.w3.org/2000/svg"
   xmlns="http://www.w3.org/2000/svg"
   xmlns:sodipodi="http://sodipodi.sourceforge.net/DTD/sodipodi-0.dtd"
   xmlns:inkscape="http://www.inkscape.org/namespaces/inkscape"
   version="1.1"
   id="Layer_1"
   x="0px"
   y="0px"
   width="210mm"
   height="297mm"
   viewBox="0 0 744.09448 1052.3622"
   enable-background="new 0 0 732.76 821.023"
   xml:space="preserve"
   inkscape:version="0.91 r13725"
   sodipodi:docname="marlin.svg"
   inkscape:export-filename="C:\Users\jbrazio\Desktop\marlin.png"
   inkscape:export-xdpi="27.424898"
   inkscape:export-ydpi="27.424898">
<title id="title3357">Marlin Firmware </title>
<metadata>
  <creator>Ahmnet Cem TURAN</creator>
  <url>https://github.com/ahmetcemturan</url>
  <license>CC-BY-NC-SA</license>
</metadata>
<metadata id="metadata55"><rdf:RDF><cc:Work
         rdf:about=""><dc:format>image/svg+xml</dc:format><dc:type
           rdf:resource="http://purl.org/dc/dcmitype/StillImage" /><dc:title>Marlin Firmware </dc:title><dc:creator><cc:Agent><dc:title>Ahmet Cem TURAN</dc:title></cc:Agent></dc:creator><dc:publisher><cc:Agent><dc:title>João Brázio</dc:title></cc:Agent></dc:publisher><dc:rights><cc:Agent><dc:title>MarlinFirmware</dc:title></cc:Agent></dc:rights><dc:identifier>marlin-logo-new</dc:identifier></cc:Work></rdf:RDF>
</metadata>
<defs
     id="defs53" /><sodipodi:namedview
     pagecolor="#ffffff"
     bordercolor="#666666"
     borderopacity="1"
     objecttolerance="10"
     gridtolerance="10"
     guidetolerance="10"
     inkscape:pageopacity="0"
     inkscape:pageshadow="2"
     inkscape:window-width="1206"
     inkscape:window-height="871"
     id="namedview51"
     showgrid="false"
     inkscape:zoom="0.66897119"
     inkscape:cx="372.04724"
     inkscape:cy="526.1811"
     inkscape:window-x="309"
     inkscape:window-y="54"
     inkscape:window-maximized="0"
     inkscape:current-layer="Layer_1"
     units="mm"
     inkscape:snap-object-midpoints="false" /><g
     id="g3383"
     transform="matrix(1.0758487,0,0,-1.0758487,5.9413219,1144.5066)"><g
       id="g3"
       transform="matrix(0.9288179,0,0,-0.9288179,-0.00839045,956.02381)"><path
         inkscape:connector-curvature="0"
         id="path5"
         d="m 484.324,3.644 c -11.78,8.81 -20.69,19.069 -29.891,34.38 -13.85,23.04 -20.51,39.79 -23.54,59.16 -2.22,14.22 -2.939,34.95 -1.59,45.84 0.8,6.5 0.8,6.5 23.5,6.59 25.48,0.11 33.09,1.03 48.19,5.85 33.22,10.61 50.779,19.66 68.77,35.44 4.25,3.73 9.03,7.87 10.61,9.2 4.56,3.83 18.27,20.479 23.3,28.29 2.521,3.92 6.13,9.5 8.021,12.39 1.88,2.9 4.319,7.28 5.409,9.75 2.21,4.99 4.511,6.15 3.44,1.74 -0.9,-3.771 -8.6,-18.76 -14.6,-28.42 -2.721,-4.4 -4.95,-8.32 -4.95,-8.73 0,-0.41 -2.021,-3.359 -4.5,-6.55 -2.471,-3.18 -4.5,-6.34 -4.5,-7.02 0,-0.67 -2.04,-3.08 -4.54,-5.36 -2.5,-2.271 -5.21,-5.71 -6.021,-7.65 -0.81,-1.939 -1.939,-3.52 -2.529,-3.52 -1.7,0 -16.91,-15.62 -16.91,-17.37 0,-0.87 -1.24,-2.22 -2.75,-3 -1.511,-0.79 -4.21,-2.82 -5.99,-4.53 -1.78,-1.7 -3.87,-3.1 -4.63,-3.1 -0.76,0 -1.97,-0.7 -2.68,-1.561 -1.261,-1.52 0.75,-0.89 12.14,3.811 2.22,0.92 3.22,0.64 7,-1.96 2.43,-1.67 9.99,-5.83 16.82,-9.25 26.25,-13.15 53.329,-18.29 68.64,-13.021 7.91,2.721 8.8,2.051 2.59,-1.93 -10.96,-7.03 -29.7,-12.07 -39.11,-10.51 -9.13,1.5 -23.8,4.75 -29.01,6.41 -14.42,4.609 -38.72,18.189 -40.41,22.59 -0.89,2.31 -3.279,0.189 -4.13,-3.65 -0.35,-1.609 -1.04,-2.93 -1.52,-2.93 -2.24,0 -7.94,-6.38 -8.53,-9.54 -0.4,-2.09 -1.37,-3.62 -2.55,-4 -2.3,-0.73 -4.88,-5.42 -4.88,-8.88 0,-1.79 -0.87,-2.98 -2.971,-4.061 -3.43,-1.779 -5.029,-4.31 -5.029,-7.949 0,-1.971 -0.851,-2.96 -3.721,-4.311 -4.55,-2.149 -6.25,-5.27 -6.27,-11.51 -0.01,-3.3 -0.42,-4.75 -1.36,-4.75 -2.529,0 -5.02,-3.97 -5.09,-8.11 -0.04,-2.75 -0.609,-4.34 -1.81,-5.01 -2.63,-1.47 -5,-6.73 -4.3,-9.54 0.409,-1.63 -0.03,-3.26 -1.311,-4.89 -1.66,-2.11 -1.78,-3.021 -0.88,-6.58 0.96,-3.78 0.85,-4.28 -1.26,-5.87 -2.15,-1.62 -2.271,-2.25 -1.721,-8.8 0.46,-5.471 0.271,-7.33 -0.84,-8.25 -1.71,-1.42 -1.899,-7.23 -0.34,-10.141 0.84,-1.56 0.8,-2.26 -0.16,-2.85 -2.8,-1.73 -1.3,-7.8 4.09,-16.5 2.904,-4.698 0.704,-4.637 -5.696,0.163 z" /><path
         inkscape:connector-curvature="0"
         id="path7"
         d="m 593.494,151.913 c -27.23,11.9 -27.17,11.86 -21.75,13.91 11.35,4.28 11.56,4.28 16.51,0.34 7.01,-5.6 26.74,-22.42 26.74,-22.8 0,-0.759 -2.33,0.17 -21.5,8.55 z" /><path
         inkscape:connector-curvature="0"
         id="path9"
         d="m 430.115,153.243 c -2.301,0.61 -6.46,4.01 -13,10.61 -7.41,7.479 -11.69,10.859 -18.61,14.689 -13.109,7.261 -23.34,15.221 -29.3,22.811 -7.94,10.1 -28.14,30.55 -33,33.39 -2.37,1.391 -4.06,2.76 -3.77,3.061 1.02,1.01 14.09,-5.181 22.56,-10.681 12.22,-7.939 22.06,-12.14 41,-17.489 22.01,-6.211 24.47,-7.351 33.439,-15.49 9.061,-8.21 11.03,-8.641 39.061,-8.54 48.56,0.16 79.989,8.78 118.6,32.52 5.29,3.24 9.9,5.9 10.25,5.9 1.851,0 -0.16,-2.9 -8.1,-11.71 -12.36,-13.7 -12.07,-13.41 -19.25,-18.96 -26.48,-20.46 -55.641,-33.22 -86.431,-37.84 -21.619,-3.25 -45.96,-4.28 -53.449,-2.271 z" /><path
         inkscape:connector-curvature="0"
         id="path11"
         d="m 565.994,169.783 c 0,0.5 3.71,2.78 8.25,5.061 15.34,7.71 34.29,24.04 54.56,47.02 23.07,26.15 45.3,70.01 52.54,103.66 8.28,38.47 9.72,48.08 11.78,78.5 0.96,14.05 0.479,70.63 -0.66,78.5 -0.23,1.649 -0.86,7.27 -1.4,12.5 -0.8,7.819 -2.96,27.56 -4.409,40.279 -0.61,5.33 1.84,2.061 5.51,-7.359 3.34,-8.601 8.2,-29.86 13.22,-57.92 0.83,-4.681 2.19,-11.65 3.01,-15.5 5.23,-24.471 7.87,-68.561 5.67,-94.65 -3.04,-36.1 -8.819,-57.53 -22.31,-82.85 -23.54,-44.14 -53.6,-75.34 -92.76,-96.29 -11.34,-6.061 -33.001,-13.25 -33.001,-10.951 z" /><path
         inkscape:connector-curvature="0"
         id="path13"
         d="m 324.754,228.673 c -9.16,1.23 -12.33,2.19 -21.49,6.5 -22.39,10.54 -28.569,12.45 -54.739,16.94 -29.301,5.03 -56.101,7.71 -86.53,8.66 -19.67,0.62 -77.15,-1.351 -83.9,-2.87 -6.76,-1.51 -7.39,0.43 -1.17,3.59 13.07,6.62 20.16,7.73 83.57,13.07 9.9,0.84 18.68,1.71 19.5,1.939 0.83,0.24 7.13,0.681 14,0.99 22.22,1.01 61.86,4.89 71.5,7 34.56,7.58 43.47,10.48 64.31,20.93 5.94,2.98 15.04,8.16 20.221,11.51 5.17,3.351 9.989,6.091 10.689,6.091 1.74,0 1.61,-3.5 -0.29,-7.511 -2.56,-5.39 -11.96,-15.02 -19.029,-19.479 -17.591,-11.11 -37.101,-18.97 -64.24,-25.88 -8.431,-2.15 -14.96,-4.11 -14.5,-4.37 0.46,-0.25 4.5,-1.66 8.97,-3.12 10.04,-3.28 19.37,-8.39 28.15,-15.43 7.54,-6.05 19.779,-12.58 25.529,-13.63 5.631,-1.021 14.73,-4.71 14.11,-5.71 -0.651,-1.06 -1.171,-1.029 -14.661,0.78 z" /><path
         inkscape:connector-curvature="0"
         id="path15"
         d="m 421.244,246.264 c 4.71,21.72 5,24.26 4.45,38.26 -0.57,14.38 -1.73,19.409 -7.54,32.72 -4.46,10.21 -15.931,18.67 -30.44,22.46 -8.55,2.24 -25.97,2.22 -55.39,-0.04 -26.11,-2.01 -36.95,-1.5 -43.59,2.05 -3.24,1.73 -3.24,1.73 3.76,2.49 12.45,1.35 27.75,5.07 48.43,11.77 10.8,3.5 23.141,6.21 32.07,7.04 4.68,0.44 8.76,0.641 9.07,0.45 0.319,-0.18 3.239,-0.62 6.5,-0.96 11.949,-1.27 24.72,-8.109 36.43,-19.52 19.189,-18.69 23.85,-45.7 12.76,-73.96 -3.88,-9.891 -12.31,-23.23 -15.43,-24.43 -1.209,-0.46 -1.459,-0.08 -1.08,1.67 z" /><path
         inkscape:connector-curvature="0"
         id="path17"
         d="m 342.594,268.073 c -6.18,5.43 -6.96,13.45 -2.04,21.11 5.341,8.31 17.33,6.92 21.82,-2.54 3.37,-7.12 0.99,-14.431 -6.3,-19.351 -4.78,-3.209 -9.23,-2.959 -13.48,0.781 z" /><path
         inkscape:connector-curvature="0"
         id="path19"
         d="m 628.284,279.654 c 0.27,3.37 0.109,8.17 -0.351,10.68 -0.64,3.431 -0.479,5.3 0.66,7.58 0.83,1.66 1.65,5.41 1.83,8.32 0.18,2.91 1.07,6.72 1.99,8.47 0.91,1.75 1.91,5.58 2.21,8.5 0.31,2.93 1.189,6.74 1.96,8.47 0.78,1.73 1.41,5.46 1.41,8.29 0,3.01 0.66,6.13 1.59,7.561 0.88,1.34 1.84,5.26 2.14,8.71 0.3,3.46 1.33,7.87 2.29,9.79 0.96,1.92 3.01,8.56 4.561,14.75 1.55,6.189 3.18,11.25 3.62,11.25 2.979,0 -2.73,-54.45 -7.811,-74.5 -4.34,-17.141 -11.46,-37.04 -14.939,-41.75 -1.6,-2.171 -1.64,-2.022 -1.16,3.879 z" /><path
         inkscape:connector-curvature="0"
         id="path21"
         d="m 565.994,286.123 c 0,0.61 2.93,4.271 6.52,8.141 8.78,9.489 16.561,19.979 20.271,27.34 3.84,7.609 10.02,25.739 10.85,31.84 0.63,4.59 0.63,4.59 -3.56,3.109 -15.601,-5.51 -51.141,-8.55 -71.2,-6.1 -23.68,2.9 -27.91,3.68 -41.021,7.53 -3.729,1.1 -6.59,3.5 -5.159,4.33 0.439,0.25 9.579,0.8 20.3,1.22 30.16,1.189 30.27,1.189 35.02,1.939 15.29,2.391 36.601,7.181 43.24,9.73 7.41,2.84 16.74,7.53 16.74,8.41 0,0.22 -30.391,0.41 -67.53,0.41 -67.52,0 -67.52,0 -65.85,-3.25 0.93,-1.79 3.159,-5.2 4.979,-7.57 8.01,-10.521 6.7,-20.93 -3.28,-26.06 -3.229,-1.65 -15.8,-1.45 -17.239,0.279 -0.931,1.12 -0.53,1.86 1.989,3.65 2.971,2.109 3.131,2.54 2.7,7.35 -0.25,2.8 -1.899,9.71 -3.66,15.351 -3.199,10.25 -3.199,10.25 -9.72,10.25 -5.76,0 -6.46,-0.21 -5.97,-1.75 0.3,-0.96 1.46,-5.13 2.569,-9.25 1.11,-4.13 3.091,-11.391 4.391,-16.15 1.3,-4.759 2.08,-9.07 1.74,-9.59 -0.69,-1.04 -12.16,-1.54 -16.25,-0.69 -2.16,0.44 -3.351,2.09 -6.67,9.23 -2.221,4.79 -5.08,13.09 -6.351,18.45 -2.319,9.75 -2.319,9.75 -185.949,9.75 -111.271,0 -185.591,0.37 -188.62,0.949 -9,1.7 -23.08,9.601 -27.051,15.171 -0.699,0.979 -1.899,2.409 -2.67,3.17 -1.779,1.79 -5.56,8.819 -5.56,10.359 0,0.65 -0.41,1.33 -0.9,1.521 -2.13,0.779 -3.09,20.439 -3.09,63.33 0,42.89 0.96,62.55 3.09,63.33 0.49,0.189 0.9,1.029 0.9,1.89 0,1.7 3.33,7.43 6.479,11.17 5.66,6.71 13.311,12.17 21.761,15.52 5.26,2.091 5.26,2.091 216.26,2.36 211,0.271 211,0.271 205,3.72 -3.3,1.9 -8.101,5.15 -10.67,7.23 -2.58,2.08 -7.53,5.97 -11,8.65 -11.59,8.92 -33.36,32.439 -31.63,34.159 0.27,0.271 3.819,-2.229 7.899,-5.569 11.69,-9.58 35.11,-20.721 55.9,-26.601 17.84,-5.04 61.729,-9 88.979,-8.029 23.2,0.829 37.181,3.27 64.63,11.239 7.051,2.061 7.521,1.63 10.17,-9.069 1.921,-7.75 2.91,-12.681 7.261,-36 1.12,-6.051 2.279,-11.79 2.569,-12.75 0.681,-2.28 -0.68,-2.21 -6.67,0.37 -4.939,2.13 -4.939,2.13 -4.939,17.5 0,15.38 0,15.38 -20.25,15.289 -18.641,-0.079 -19.87,-0.189 -15.44,-1.409 16.22,-4.46 29.5,-16.811 33.99,-31.591 1.5,-4.92 1.7,-11.27 1.7,-53.069 0,-47.48 0,-47.48 3.47,-47.2 5.12,0.4 8.53,3 8.53,6.51 0,1.601 0.64,3.16 1.43,3.46 1.8,0.69 3.57,5.66 3.57,9.99 0,2.24 0.85,4.16 2.63,5.94 2.34,2.33 2.56,3.17 2.05,7.489 -0.47,4.021 -0.28,4.971 1.12,5.42 0.939,0.311 4.31,4.33 7.5,8.94 6.02,8.68 7.86,10.62 16.09,16.88 7.8,5.94 8.68,4.93 2.68,-3.06 -5.38,-7.16 -8.83,-14.79 -11.55,-25.59 -3.01,-11.95 -3.47,-15.921 -4.18,-35.87 -0.68,-18.99 0.09,-17.79 -9.76,-15.23 -7.9,2.061 -18.301,7.36 -21.2,10.811 -2.38,2.819 -2.38,2.819 -2.34,-12.5 0.029,-13.641 0.18,-15.051 1.42,-12.83 1.81,3.239 2.38,1.739 2.88,-7.5 1.17,-21.61 -8.39,-54.021 -22.13,-75 -11.45,-17.49 -25.54,-32.69 -36.94,-39.851 -4.728,-2.958 -5.268,-3.117 -5.268,-1.548 z M 409.671,394.947 c 0.64,1.94 0.574,5.107 0.574,11.916 0,7.165 -0.678,17.899 24.231,17.899 0.659,-31.659 -1.163,-30.738 41.147,-30.738 42.31,0 42.31,0 47.59,4.87 2.9,2.67 6.47,5.93 7.92,7.25 7.811,7.06 20.66,18.819 23.91,21.88 2.04,1.92 7.9,7.33 13.01,12 5.11,4.67 10.75,9.85 12.53,11.5 1.78,1.649 7.39,6.819 12.47,11.5 24.38,22.439 22.07,17.439 21.74,47.12 -0.3,26.38 -0.3,26.38 -3.05,31.97 -3.601,7.33 -9.66,13.2 -17.721,17.189 -6.529,3.221 -6.529,3.221 -280.529,3.221 -274,0 -274,0 -280.51,-3.08 -9.811,-4.65 -17.92,-13.84 -19.931,-22.561 -1.359,-5.85 -1.359,-110.87 0,-116.72 1,-4.38 4.601,-10.37 9.131,-15.23 3.22,-3.449 13.289,-8.899 18.289,-9.89 6.383,-1.269 368.768,-1.366 369.199,-0.096 z" /><path
         style="display:none"
         inkscape:connector-curvature="0"
         id="path23"
         d="m 79.994,425.043 c -6.2,0.83 -12.82,3.13 -18,6.24 -4.73,2.84 -12.08,10.729 -14.36,15.42 -1.02,2.1 -2.37,4.72 -3,5.82 -0.79,1.38 -1.239,14.939 -1.449,43.97 -0.29,39.04 -0.19,42.06 1.439,43.25 1.14,0.83 5.17,1.28 11.561,1.28 9.81,0 9.81,0 9.819,-38.75 0.021,-43.25 0.24,-44.92 6.61,-50.931 4.34,-4.09 12.88,-6.779 18.729,-5.89 6.37,0.97 11.71,4.5 15.11,10 3.04,4.91 3.04,4.91 3.32,45.24 0.29,40.33 0.29,40.33 11.75,40.33 11.47,0 11.47,0 11.47,-36.67 0,-43 0.5,-47.48 5.83,-52.61 3.63,-3.49 11.09,-6.72 15.52,-6.72 4.83,0 12.78,3.159 15.74,6.25 5.93,6.21 5.87,5.72 6.15,49.25 0.26,40 0.26,40 11.76,40 11.5,0 11.5,0 11.5,-42.5 0,-42.5 0,-42.5 -3.32,-49.24 -5.42,-11.01 -13.09,-17.65 -25.229,-21.86 -8.86,-3.06 -23.681,-2.979 -32.24,0.181 -3.41,1.26 -6.43,2.55 -6.71,2.859 -0.271,0.311 -2.07,1.65 -4,2.99 -1.92,1.33 -3.86,3.02 -4.3,3.75 -1.26,2.09 -3.59,1.56 -6.51,-1.49 -7.579,-7.919 -22.89,-12.098 -37.19,-10.169 z"
         display="none" /><path
         style="display:none"
         inkscape:connector-curvature="0"
         id="path25"
         d="m 464.014,425.053 c -6.38,1.49 -9.76,8.38 -8.85,18 0.33,3.471 0.33,3.471 12.08,3.75 11.75,0.28 11.75,0.28 11.75,-7.83 0,-7.619 -0.17,-8.279 -2.92,-11.029 -1.61,-1.601 -3.601,-2.92 -4.42,-2.92 -0.82,0 -2.101,-0.181 -2.83,-0.4 -0.73,-0.211 -2.9,-0.02 -4.81,0.429 z"
         display="none" /><path
         style="display:none"
         inkscape:connector-curvature="0"
         id="path27"
         d="m 234.994,457.404 c -3.021,1.18 -6.85,2.899 -8.5,3.819 -3.29,1.83 -12.28,10.28 -14.22,13.36 -5.44,8.64 -7.91,20.35 -6.271,29.73 1.17,6.699 4.021,14.699 5.24,14.71 0.41,0 0.75,0.56 0.75,1.25 0,1.51 9.49,11.75 10.88,11.75 0.54,0 1.57,0.56 2.3,1.25 4.99,4.72 20.5,8.199 33.82,7.59 7.5,-0.34 7.5,-0.34 7.5,-10.84 0,-10.5 0,-10.5 -11.5,-11.011 -10.23,-0.46 -11.94,-0.8 -15.5,-3.119 -5.11,-3.341 -6.8,-5.37 -8.84,-10.641 -2.07,-5.34 -2.03,-9.59 0.149,-14.76 2.45,-5.83 4.091,-7.79 9.69,-11.59 4.61,-3.11 5.59,-3.38 12.5,-3.33 6.31,0.04 8.13,0.45 11.5,2.63 4.59,2.96 7.4,6.01 10.02,10.89 1.58,2.96 1.921,6.74 2.41,27.431 0.57,24 0.57,24 33.271,24.26 32.71,0.27 32.71,0.27 33,-27.16 0.3,-27.42 0.3,-27.42 3.399,-31.26 1.74,-2.15 5.101,-4.67 7.63,-5.72 11.94,-4.98 24.771,2.96 24.771,15.329 0,4.051 0,4.051 11.44,4.051 6.289,0 11.699,-0.42 12.02,-0.94 1.11,-1.8 -1.58,-15.61 -4.01,-20.56 -2.53,-5.16 -8.601,-12.5 -10.33,-12.5 -0.54,0 -1.57,-0.58 -2.3,-1.29 -0.73,-0.7 -3.95,-2.28 -7.16,-3.5 -4.78,-1.811 -7.9,-2.21 -17.21,-2.21 -17.45,0 -25.69,3.72 -36.08,16.29 -0.62,0.75 -1.46,2.449 -1.87,3.79 -0.41,1.329 -1.25,3.05 -1.87,3.819 -0.72,0.9 -1.26,8.41 -1.49,20.75 -0.35,19.351 -0.35,19.351 -9.75,19.351 -9.39,0 -9.39,0 -9.39,-9.61 0,-10.02 -2.62,-27.39 -4.13,-27.39 -0.48,0 -0.87,-0.681 -0.87,-1.521 0,-4.109 -10.54,-15.67 -18.12,-19.85 -7.939,-4.391 -13.75,-5.63 -25.79,-5.51 -9.299,0.092 -12.678,0.541 -17.089,2.262 z"
         display="none" /><path
         style="display:none"
         inkscape:connector-curvature="0"
         id="path29"
         d="m 525.764,457.104 c -2.6,1.029 -6.43,2.939 -8.51,4.25 -4.58,2.899 -11.26,10.109 -11.26,12.17 0,0.83 -0.37,1.5 -0.82,1.5 -0.45,0 -1.57,2.399 -2.5,5.34 -1.31,4.16 -1.68,9.229 -1.68,23.03 0,17.699 0,17.699 -10.75,17.409 -10.75,-0.279 -10.75,-0.279 -11.011,-32.56 -0.27,-32.29 -0.27,-32.29 -11.5,-32 -11.239,0.28 -11.239,0.28 -11.5,42.54 -0.26,42.27 -0.26,42.27 34,42 34.261,-0.26 34.261,-0.26 34.761,-27.76 0.359,-19.86 0.859,-28.13 1.79,-29.761 0.71,-1.25 3.189,-3.489 5.5,-4.97 8.13,-5.22 20.939,-3.13 25.34,4.14 1.67,2.761 1.92,6.04 2.37,30.591 0.5,27.5 0.5,27.5 9.87,27.79 15.01,0.46 14.13,2.18 14.13,-27.73 0,-27.34 -0.91,-33.85 -5.82,-41.49 -3.86,-6 -7.84,-9.31 -15.78,-13.14 -6.97,-3.36 -7.35,-3.43 -19.5,-3.33 -9.59,0.08 -13.47,0.531 -17.13,1.981 z"
         display="none" /><path
         inkscape:connector-curvature="0"
         id="path31"
         d="m 291.834,301.894 c -31.39,15.779 -65.61,48.069 -73.51,69.369 -0.95,2.58 -1.44,4.99 -1.07,5.351 0.36,0.37 4.62,-3.05 9.45,-7.58 9.01,-8.45 29.87,-22.99 38.79,-27.04 2.75,-1.24 7.93,-3.59 11.5,-5.2 15.81,-7.16 35.55,-13.08 56.75,-17.02 6.19,-1.15 11.25,-2.471 11.25,-2.92 0,-1.87 -27.38,-0.83 -41.5,1.569 -19.89,3.38 -23.5,3.83 -23.49,2.91 0.01,-1.46 10.38,-11.8 17.26,-17.2 3.7,-2.91 6.48,-5.7 6.171,-6.199 -0.851,-1.38 -1.231,-1.25 -11.601,3.96 z" /><path
         inkscape:connector-curvature="0"
         id="path33"
         d="m 714.554,427.213 c -1.97,6.01 -4.8,28.311 -4.92,38.83 -0.14,12.521 -0.14,12.521 3.36,18.42 3.58,6.021 15.01,18.561 16.93,18.561 1.78,0 1.24,-1.33 -2.68,-6.58 -2.061,-2.771 -5.29,-8.261 -7.181,-12.21 -3.43,-7.17 -3.43,-7.17 -2.31,-14.94 1.88,-13.02 2.85,-18.21 3.5,-18.86 0.34,-0.35 2,0.351 3.68,1.551 1.83,1.3 3.061,1.689 3.061,0.979 0,-2.34 -5.181,-15.51 -8.13,-20.66 -3.3,-5.771 -4.66,-7.081 -5.31,-5.091 z" /><path
         inkscape:connector-curvature="0"
         id="path35"
         d="m 685.124,557.274 c -2.561,9.659 -3.08,13.8 -3.11,24.779 -0.02,12.341 3.33,34.88 6.98,46.971 1.08,3.569 2.88,10.55 4.01,15.5 1.13,4.949 2.92,12.37 4,16.5 2.88,11.109 6,30.409 5.94,36.85 -0.051,5.65 -0.051,5.65 -4.12,-2.35 -5.23,-10.271 -15.091,-25.28 -21.83,-33.24 -11.53,-13.59 -27.24,-23.95 -37.891,-24.98 -3.25,-0.31 -6.449,-1.279 -7.609,-2.29 -2.83,-2.489 -8.05,-4.989 -10.391,-4.989 -1.1,0 -3.55,-0.92 -5.449,-2.04 -2.28,-1.34 -6.641,-2.37 -12.811,-3.021 -5.14,-0.54 -10.42,-1.439 -11.729,-2 -2.811,-1.2 -3.511,-0.75 -2.721,1.73 0.95,3 5.33,7.13 12.051,11.37 3.909,2.47 6.779,5.09 7.51,6.869 0.81,1.961 2.13,3.061 4.149,3.461 1.78,0.359 5.601,3.17 9.63,7.109 3.681,3.59 7.48,6.521 8.45,6.521 2.65,0 9.73,3.029 14.811,6.34 7,4.56 20.069,18.439 24.64,26.17 6.08,10.29 13.92,26.89 23.36,49.49 8.43,20.18 17.1,51.35 19.26,69.25 0.65,5.359 1.42,9.75 1.72,9.75 0.58,0 1.15,-1.24 6.57,-14.46 9.29,-22.66 11.439,-32.16 12.11,-53.54 0.97,-31.2 -4.49,-62.19 -16.66,-94.5 -9.29,-24.681 -23.91,-70.03 -25.46,-79 -0.86,-4.95 -1.851,-12.94 -2.2,-17.75 -0.351,-4.811 -0.96,-8.75 -1.36,-8.75 -0.4,0 -1.23,1.909 -1.85,4.25 z" /></g><g
       transform="matrix(92.881793,0,0,92.881793,0.51490554,-87841.16)"
       id="g37"><path
         inkscape:connector-curvature="0"
         id="path39"
         d="m 4.097,951.447 c 0,-0.434 0.002,-0.516 0.012,-0.566 C 4.146,950.7 4.27,950.6 4.458,950.6 l 0.063,0 -0.002,0.111 -0.002,0.111 -0.041,0.003 c -0.046,0.004 -0.072,0.015 -0.097,0.041 -0.037,0.04 -0.036,0.032 -0.039,0.576 l -0.002,0.513 -0.12,0 -0.121,0 0,-0.508 z" /><path
         inkscape:connector-curvature="0"
         id="path41"
         d="m 0.736,951.882 c -0.123,-0.032 -0.231,-0.118 -0.283,-0.224 -0.05,-0.103 -0.05,-0.097 -0.05,-0.589 0,-0.42 0.001,-0.444 0.014,-0.456 0.012,-0.01 0.032,-0.013 0.121,-0.013 l 0.107,0 0,0.445 c 0,0.283 0.003,0.455 0.008,0.473 0.02,0.073 0.1,0.133 0.184,0.14 0.097,0.008 0.18,-0.039 0.218,-0.121 l 0.018,-0.04 0.002,-0.448 0.002,-0.448 0.121,0 0.121,0 0,0.438 c 0,0.478 0,0.483 0.044,0.543 0.03,0.041 0.09,0.072 0.149,0.077 0.094,0.008 0.173,-0.035 0.215,-0.114 l 0.021,-0.039 0.002,-0.452 0.002,-0.452 0.121,0 0.121,0 0,0.449 c 0,0.419 -10e-4,0.453 -0.015,0.506 -0.023,0.089 -0.055,0.146 -0.121,0.211 -0.09,0.089 -0.186,0.128 -0.32,0.128 -0.122,0 -0.212,-0.034 -0.296,-0.113 l -0.048,-0.045 -0.017,0.022 c -0.029,0.039 -0.12,0.097 -0.184,0.117 -0.048,0.015 -0.075,0.019 -0.137,0.018 -0.044,-10e-4 -0.097,-0.007 -0.12,-0.013 z" /><path
         inkscape:connector-curvature="0"
         id="path43"
         d="m 4.642,951.881 c -0.014,-0.007 -0.034,-0.025 -0.044,-0.039 -0.015,-0.023 -0.017,-0.035 -0.017,-0.115 l 0,-0.09 0.121,0 0.121,0 0,0.08 c 0,0.089 -0.008,0.116 -0.045,0.151 -0.03,0.028 -0.095,0.035 -0.136,0.013 z" /><path
         inkscape:connector-curvature="0"
         id="path45"
         d="m 2.386,951.544 c -0.083,-0.025 -0.133,-0.055 -0.197,-0.118 -0.067,-0.067 -0.112,-0.146 -0.132,-0.239 -0.019,-0.084 -0.012,-0.199 0.016,-0.275 0.042,-0.115 0.125,-0.211 0.227,-0.262 0.074,-0.037 0.139,-0.048 0.267,-0.049 l 0.108,0 0,0.116 0,0.117 -0.1,0.003 c -0.088,0.003 -0.106,0.006 -0.142,0.023 -0.058,0.027 -0.094,0.06 -0.119,0.111 -0.018,0.037 -0.021,0.052 -0.021,0.107 0,0.055 0.003,0.071 0.021,0.107 0.026,0.052 0.07,0.098 0.118,0.121 0.05,0.025 0.15,0.025 0.197,0 0.046,-0.025 0.091,-0.072 0.114,-0.121 l 0.02,-0.043 0.002,-0.271 0.002,-0.271 0.34,0 0.34,0 0,0.297 c 0,0.336 0,0.334 0.059,0.385 0.086,0.074 0.226,0.053 0.274,-0.04 0.01,-0.019 0.017,-0.052 0.02,-0.087 l 0.004,-0.056 0.12,0 0.12,0 0,0.052 c 0,0.062 -0.023,0.156 -0.051,0.213 -0.043,0.085 -0.143,0.161 -0.245,0.185 -0.057,0.013 -0.171,0.015 -0.228,0.003 -0.112,-0.023 -0.222,-0.107 -0.269,-0.204 -0.042,-0.087 -0.047,-0.12 -0.047,-0.327 l 0,-0.188 -0.099,0 -0.098,0 0,0.154 c 0,0.128 -0.002,0.164 -0.015,0.212 -0.044,0.172 -0.176,0.306 -0.344,0.349 -0.069,0.019 -0.192,0.016 -0.262,-0.004 z" /><path
         inkscape:connector-curvature="0"
         id="path47"
         d="M 5.34,951.549 C 5.203,951.512 5.098,951.411 5.054,951.273 5.043,951.239 5.04,951.194 5.037,951.029 l -0.003,-0.203 -0.105,0 -0.106,0 0,0.356 0,0.356 -0.121,0 -0.121,0 0,-0.469 0,-0.469 0.348,0 0.348,0 0,0.276 c 0,0.168 0.003,0.291 0.008,0.314 0.01,0.049 0.044,0.094 0.085,0.116 0.026,0.014 0.045,0.017 0.093,0.017 0.08,0 0.121,-0.022 0.151,-0.081 l 0.02,-0.039 0,-0.301 0,-0.302 0.105,0 c 0.092,0 0.107,0.002 0.123,0.014 l 0.018,0.015 0,0.294 c 0,0.255 -0.002,0.3 -0.013,0.342 -0.022,0.081 -0.05,0.131 -0.103,0.184 -0.082,0.082 -0.167,0.113 -0.303,0.112 -0.045,0 -0.099,-0.006 -0.121,-0.012 z" /></g><path
       inkscape:connector-curvature="0"
       id="path49"
       d="M 403.52901,561.50203" /></g>
</svg>
