999
dxflib 2.2.0.0
  0
SECTION
  2
HEADER
  9
$ACADVER
  1
AC1015
  9
$HANDSEED
  5
FFFF
  9
$DIMASZ
 40
2.5
  9
$PLIMMIN
 10
0.0
 20
0.0
  9
$DIMEXE
 40
1.25
  9
$DIMGAP
 40
0.625
  9
$PLIMMAX
 10
210.0
 20
297.0
  9
$INSUNITS
 70
4
  9
$DIMSTYLE
  2
Standard
  9
$CLAYER
  8
outside_outside
  9
$DIMEXO
 40
0.625
  9
$DIMTXT
 40
2.5
  0
ENDSEC
  0
SECTION
  2
TABLES
  0
TABLE
  2
VPORT
  5
8
100
AcDbSymbolTable
 70
1
  0
VPORT
  5
30
100
AcDbSymbolTableRecord
100
AcDbViewportTableRecord
  2
*Active
 70
0
 10
0.0
 20
0.0
 11
1.0
 21
1.0
 12
286.3055555555554861
 22
148.5
 13
0.0
 23
0.0
 14
10.0
 24
10.0
 15
10.0
 25
10.0
 16
0.0
 26
0.0
 36
1.0
 17
0.0
 27
0.0
 37
0.0
 40
297.0
 41
1.92798353909465
 42
50.0
 43
0.0
 44
0.0
 50
0.0
 51
0.0
 71
0
 72
100
 73
1
 74
3
 75
1
 76
1
 77
0
 78
0
281
0
 65
1
110
0.0
120
0.0
130
0.0
111
1.0
121
0.0
131
0.0
112
0.0
122
1.0
132
0.0
 79
0
146
0.0
  0
ENDTAB
  0
TABLE
  2
LTYPE
  5
5
100
AcDbSymbolTable
 70
21
  0
LTYPE
  5
14
100
AcDbSymbolTableRecord
100
AcDbLinetypeTableRecord
  2
ByBlock
 70
0
  3

 72
65
 73
0
 40
0.0
  0
LTYPE
  5
15
100
AcDbSymbolTableRecord
100
AcDbLinetypeTableRecord
  2
ByLayer
 70
0
  3

 72
65
 73
0
 40
0.0
  0
LTYPE
  5
16
100
AcDbSymbolTableRecord
100
AcDbLinetypeTableRecord
  2
CONTINUOUS
 70
0
  3
Solid line
 72
65
 73
0
 40
0.0
  0
LTYPE
  5
31
100
AcDbSymbolTableRecord
100
AcDbLinetypeTableRecord
  2
DOT
 70
0
  3
Dot . . . . . . . . . . . . . . . . . . . . . .
 72
65
 73
2
 40
6.3499999999999996
 49
0.0
 74
0
 49
-6.3499999999999996
 74
0
  0
LTYPE
  5
32
100
AcDbSymbolTableRecord
100
AcDbLinetypeTableRecord
  2
DOT2
 70
0
  3
Dot (.5x) .....................................
 72
65
 73
2
 40
3.1749999999999998
 49
0.0
 74
0
 49
-3.1749999999999998
 74
0
  0
LTYPE
  5
33
100
AcDbSymbolTableRecord
100
AcDbLinetypeTableRecord
  2
DOTX2
 70
0
  3
Dot (2x) .  .  .  .  .  .  .  .  .  .  .  .  .
 72
65
 73
2
 40
12.6999999999999993
 49
0.0
 74
0
 49
-12.6999999999999993
 74
0
  0
LTYPE
  5
34
100
AcDbSymbolTableRecord
100
AcDbLinetypeTableRecord
  2
DASHED
 70
0
  3
Dashed __ __ __ __ __ __ __ __ __ __ __ __ __ _
 72
65
 73
2
 40
19.0500000000000007
 49
12.6999999999999993
 74
0
 49
-6.3499999999999996
 74
0
  0
LTYPE
  5
35
100
AcDbSymbolTableRecord
100
AcDbLinetypeTableRecord
  2
DASHED2
 70
0
  3
Dashed (.5x) _ _ _ _ _ _ _ _ _ _ _ _ _ _ _ _ _
 72
65
 73
2
 40
9.5250000000000004
 49
6.3499999999999996
 74
0
 49
-3.1749999999999998
 74
0
  0
LTYPE
  5
36
100
AcDbSymbolTableRecord
100
AcDbLinetypeTableRecord
  2
DASHEDX2
 70
0
  3
Dashed (2x) ____  ____  ____  ____  ____  ___
 72
65
 73
2
 40
38.1000000000000014
 49
25.3999999999999986
 74
0
 49
-12.6999999999999993
 74
0
  0
LTYPE
  5
37
100
AcDbSymbolTableRecord
100
AcDbLinetypeTableRecord
  2
DASHDOT
 70
0
  3
Dash dot __ . __ . __ . __ . __ . __ . __ . __
 72
65
 73
4
 40
25.3999999999999986
 49
12.6999999999999993
 74
0
 49
-6.3499999999999996
 74
0
 49
0.0
 74
0
 49
-6.3499999999999996
 74
0
  0
LTYPE
  5
38
100
AcDbSymbolTableRecord
100
AcDbLinetypeTableRecord
  2
DASHDOT2
 70
0
  3
Dash dot (.5x) _._._._._._._._._._._._._._._.
 72
65
 73
4
 40
12.6999999999999993
 49
6.3499999999999996
 74
0
 49
-3.1749999999999998
 74
0
 49
0.0
 74
0
 49
-3.1749999999999998
 74
0
  0
LTYPE
  5
39
100
AcDbSymbolTableRecord
100
AcDbLinetypeTableRecord
  2
DASHDOTX2
 70
0
  3
Dash dot (2x) ____  .  ____  .  ____  .  ___
 72
65
 73
4
 40
50.7999999999999972
 49
25.3999999999999986
 74
0
 49
-12.6999999999999993
 74
0
 49
0.0
 74
0
 49
-12.6999999999999993
 74
0
  0
LTYPE
  5
3A
100
AcDbSymbolTableRecord
100
AcDbLinetypeTableRecord
  2
DIVIDE
 70
0
  3
Divide ____ . . ____ . . ____ . . ____ . . ____
 72
65
 73
6
 40
31.75
 49
12.6999999999999993
 74
0
 49
-6.3499999999999996
 74
0
 49
0.0
 74
0
 49
-6.3499999999999996
 74
0
 49
0.0
 74
0
 49
-6.3499999999999996
 74
0
  0
LTYPE
  5
3B
100
AcDbSymbolTableRecord
100
AcDbLinetypeTableRecord
  2
DIVIDE2
 70
0
  3
Divide (.5x) __..__..__..__..__..__..__..__.._
 72
65
 73
6
 40
15.875
 49
6.3499999999999996
 74
0
 49
-3.1749999999999998
 74
0
 49
0.0
 74
0
 49
-3.1749999999999998
 74
0
 49
0.0
 74
0
 49
-3.1749999999999998
 74
0
  0
LTYPE
  5
3C
100
AcDbSymbolTableRecord
100
AcDbLinetypeTableRecord
  2
DIVIDEX2
 70
0
  3
Divide (2x) ________  .  .  ________  .  .  _
 72
65
 73
6
 40
63.5
 49
25.3999999999999986
 74
0
 49
-12.6999999999999993
 74
0
 49
0.0
 74
0
 49
-12.6999999999999993
 74
0
 49
0.0
 74
0
 49
-12.6999999999999993
 74
0
  0
LTYPE
  5
3D
100
AcDbSymbolTableRecord
100
AcDbLinetypeTableRecord
  2
CENTER
 70
0
  3
Center ____ _ ____ _ ____ _ ____ _ ____ _ ____
 72
65
 73
4
 40
50.7999999999999972
 49
31.75
 74
0
 49
-6.3499999999999996
 74
0
 49
6.3499999999999996
 74
0
 49
-6.3499999999999996
 74
0
  0
LTYPE
  5
3E
100
AcDbSymbolTableRecord
100
AcDbLinetypeTableRecord
  2
CENTER2
 70
0
  3
Center (.5x) ___ _ ___ _ ___ _ ___ _ ___ _ ___
 72
65
 73
4
 40
28.5749999999999993
 49
19.0500000000000007
 74
0
 49
-3.1749999999999998
 74
0
 49
3.1749999999999998
 74
0
 49
-3.1749999999999998
 74
0
  0
LTYPE
  5
3F
100
AcDbSymbolTableRecord
100
AcDbLinetypeTableRecord
  2
CENTERX2
 70
0
  3
Center (2x) ________  __  ________  __  _____
 72
65
 73
4
 40
101.5999999999999943
 49
63.5
 74
0
 49
-12.6999999999999993
 74
0
 49
12.6999999999999993
 74
0
 49
-12.6999999999999993
 74
0
  0
LTYPE
  5
40
100
AcDbSymbolTableRecord
100
AcDbLinetypeTableRecord
  2
BORDER
 70
0
  3
Border __ __ . __ __ . __ __ . __ __ . __ __ .
 72
65
 73
6
 40
44.4500000000000028
 49
12.6999999999999993
 74
0
 49
-6.3499999999999996
 74
0
 49
12.6999999999999993
 74
0
 49
-6.3499999999999996
 74
0
 49
0.0
 74
0
 49
-6.3499999999999996
 74
0
  0
LTYPE
  5
41
100
AcDbSymbolTableRecord
100
AcDbLinetypeTableRecord
  2
BORDER2
 70
0
  3
Border (.5x) __.__.__.__.__.__.__.__.__.__.__.
 72
65
 73
6
 40
22.2250000000000014
 49
6.3499999999999996
 74
0
 49
-3.1749999999999998
 74
0
 49
6.3499999999999996
 74
0
 49
-3.1749999999999998
 74
0
 49
0.0
 74
0
 49
-3.1749999999999998
 74
0
  0
LTYPE
  5
42
100
AcDbSymbolTableRecord
100
AcDbLinetypeTableRecord
  2
BORDERX2
 70
0
  3
Border (2x) ____  ____  .  ____  ____  .  ___
 72
65
 73
6
 40
88.9000000000000057
 49
25.3999999999999986
 74
0
 49
-12.6999999999999993
 74
0
 49
25.3999999999999986
 74
0
 49
-12.6999999999999993
 74
0
 49
0.0
 74
0
 49
-12.6999999999999993
 74
0
  0
ENDTAB
  0
TABLE
  2
LAYER
  5
2
100
AcDbSymbolTable
 70
5
  0
LAYER
  5
10
100
AcDbSymbolTableRecord
100
AcDbLayerTableRecord
  2
0
 70
0
 62
7
  6
CONTINUOUS
370
25
390
F
  0
LAYER
  5
43
100
AcDbSymbolTableRecord
100
AcDbLayerTableRecord
  2
outside_inside
 70
0
 62
2
  6
CONTINUOUS
370
0
390
F
  0
LAYER
  5
44
100
AcDbSymbolTableRecord
100
AcDbLayerTableRecord
  2
inside_outside
 70
0
 62
7
  6
CONTINUOUS
370
0
390
F
  0
LAYER
  5
45
100
AcDbSymbolTableRecord
100
AcDbLayerTableRecord
  2
inside_inside
 70
0
 62
7
  6
CONTINUOUS
370
0
390
F
  0
LAYER
  5
46
100
AcDbSymbolTableRecord
100
AcDbLayerTableRecord
  2
outside_outside
 70
0
 62
7
  6
CONTINUOUS
370
0
390
F
  0
ENDTAB
  0
TABLE
  2
STYLE
  5
3
100
AcDbSymbolTable
 70
1
  0
STYLE
  5
11
100
AcDbSymbolTableRecord
100
AcDbTextStyleTableRecord
  2
Standard
 70
0
 40
0.0
 41
0.75
 50
0.0
 71
0
 42
2.5
  3
txt
  4

  0
ENDTAB
  0
TABLE
  2
VIEW
  5
6
100
AcDbSymbolTable
 70
0
  0
ENDTAB
  0
TABLE
  2
UCS
  5
7
100
AcDbSymbolTable
 70
0
  0
ENDTAB
  0
TABLE
  2
APPID
  5
9
100
AcDbSymbolTable
 70
1
  0
APPID
  5
12
100
AcDbSymbolTableRecord
100
AcDbRegAppTableRecord
  2
ACAD
 70
0
  0
ENDTAB
  0
TABLE
  2
DIMSTYLE
  5
A
100
AcDbSymbolTable
 70
1
100
AcDbDimStyleTable
 71
0
  0
DIMSTYLE
105
27
100
AcDbSymbolTableRecord
100
AcDbDimStyleTableRecord
  2
Standard
 41
2.5
 42
0.625
 43
3.75
 44
1.25
 70
0
 73
0
 74
0
 77
1
 78
8
140
2.5
141
2.5
143
0.03937007874016
147
0.625
171
3
172
1
271
2
272
2
274
3
278
44
283
0
284
8
340
11
  0
ENDTAB
  0
TABLE
  2
BLOCK_RECORD
  5
1
100
AcDbSymbolTable
 70
1
  0
BLOCK_RECORD
  5
1F
100
AcDbSymbolTableRecord
100
AcDbBlockTableRecord
  2
*Model_Space
340
22
  0
BLOCK_RECORD
  5
1B
100
AcDbSymbolTableRecord
100
AcDbBlockTableRecord
  2
*Paper_Space
340
1E
  0
BLOCK_RECORD
  5
23
100
AcDbSymbolTableRecord
100
AcDbBlockTableRecord
  2
*Paper_Space0
340
26
  0
ENDTAB
  0
ENDSEC
  0
SECTION
  2
BLOCKS
  0
BLOCK
  5
20
100
AcDbEntity
  8
0
100
AcDbBlockBegin
  2
*Model_Space
 70
0
 10
0.0
 20
0.0
 30
0.0
  3
*Model_Space
  1

  0
ENDBLK
  5
21
100
AcDbEntity
  8
0
100
AcDbBlockEnd
  0
BLOCK
  5
1C
100
AcDbEntity
 67
1
  8
0
100
AcDbBlockBegin
  2
*Paper_Space
 70
0
 10
0.0
 20
0.0
 30
0.0
  3
*Paper_Space
  1

  0
ENDBLK
  5
1D
100
AcDbEntity
 67
1
  8
0
100
AcDbBlockEnd
  0
BLOCK
  5
24
100
AcDbEntity
  8
0
100
AcDbBlockBegin
  2
*Paper_Space0
 70
0
 10
0.0
 20
0.0
 30
0.0
  3
*Paper_Space0
  1

  0
ENDBLK
  5
25
100
AcDbEntity
  8
0
100
AcDbBlockEnd
  0
ENDSEC
  0
SECTION
  2
ENTITIES
  0
ARC
  5
47
100
AcDbEntity
  8
inside_outside
 62
256
370
-1
  6
ByLayer
100
AcDbCircle
 10
-14.7224318643354586
 20
8.4999999999999964
 30
0.0
 40
6.5
100
AcDbArc
 50
96.055998685138448
 51
203.9440013148613957
  0
ARC
  5
48
100
AcDbEntity
  8
inside_outside
 62
256
370
-1
  6
ByLayer
100
AcDbCircle
 10
-15.4609348080631577
 20
15.460934808063195
 30
0.0
 40
0.5
100
AcDbArc
 50
276.0559986851385474
 51
353.9440013148615094
  0
ARC
  5
49
100
AcDbEntity
  8
inside_outside
 62
256
370
-1
  6
ByLayer
100
AcDbCircle
 10
-17.0
 20
0.0000000000000021
 30
0.0
 40
6.5
100
AcDbArc
 50
126.055998685138448
 51
233.9440013148613957
  0
ARC
  5
4A
100
AcDbEntity
  8
inside_outside
 62
256
370
-1
  6
ByLayer
100
AcDbCircle
 10
-21.1200297140693749
 20
5.6590949060062306
 30
0.0
 40
0.5
100
AcDbArc
 50
306.0559986851385474
 51
23.9440013148615343
  0
ARC
  5
4B
100
AcDbEntity
  8
inside_outside
 62
256
370
-1
  6
ByLayer
100
AcDbCircle
 10
-14.722431864335455
 20
-8.5000000000000018
 30
0.0
 40
6.5
100
AcDbArc
 50
156.0559986851384338
 51
263.9440013148613389
  0
ARC
  5
4C
100
AcDbEntity
  8
inside_outside
 62
256
370
-1
  6
ByLayer
100
AcDbCircle
 10
-21.1200297140693891
 20
-5.6590949060061781
 30
0.0
 40
0.5
100
AcDbArc
 50
336.0559986851384906
 51
53.9440013148615023
  0
ARC
  5
4D
100
AcDbEntity
  8
inside_outside
 62
256
370
-1
  6
ByLayer
100
AcDbCircle
 10
-8.4999999999999929
 20
-14.7224318643354604
 30
0.0
 40
6.5
100
AcDbArc
 50
186.0559986851384338
 51
293.9440013148613957
  0
ARC
  5
4E
100
AcDbEntity
  8
inside_outside
 62
256
370
-1
  6
ByLayer
100
AcDbCircle
 10
-15.4609348080631914
 20
-15.4609348080631595
 30
0.0
 40
0.5
100
AcDbArc
 50
6.0559986851385323
 51
83.9440013148615236
  0
ARC
  5
4F
100
AcDbEntity
  8
inside_outside
 62
256
370
-1
  6
ByLayer
100
AcDbCircle
 10
-0.0000000000000031
 20
-17.0
 30
0.0
 40
6.5
100
AcDbArc
 50
216.0559986851384338
 51
323.9440013148613957
  0
ARC
  5
50
100
AcDbEntity
  8
inside_outside
 62
256
370
-1
  6
ByLayer
100
AcDbCircle
 10
-5.6590949060062412
 20
-21.1200297140693714
 30
0.0
 40
0.5
100
AcDbArc
 50
36.0559986851384977
 51
113.9440013148615378
  0
ARC
  5
51
100
AcDbEntity
  8
inside_outside
 62
256
370
-1
  6
ByLayer
100
AcDbCircle
 10
8.4999999999999876
 20
-14.7224318643354639
 30
0.0
 40
6.5
100
AcDbArc
 50
246.0559986851384053
 51
353.9440013148613389
  0
ARC
  5
52
100
AcDbEntity
  8
inside_outside
 62
256
370
-1
  6
ByLayer
100
AcDbCircle
 10
5.6590949060061773
 20
-21.1200297140693891
 30
0.0
 40
0.5
100
AcDbArc
 50
66.055998685138519
 51
143.9440013148615094
  0
ARC
  5
53
100
AcDbEntity
  8
inside_outside
 62
256
370
-1
  6
ByLayer
100
AcDbCircle
 10
14.7224318643354604
 20
-8.4999999999999947
 30
0.0
 40
6.5
100
AcDbArc
 50
276.0559986851384338
 51
23.9440013148613815
  0
ARC
  5
54
100
AcDbEntity
  8
inside_outside
 62
256
370
-1
  6
ByLayer
100
AcDbCircle
 10
15.4609348080631595
 20
-15.4609348080631932
 30
0.0
 40
0.5
100
AcDbArc
 50
96.0559986851385332
 51
173.944001314861481
  0
ARC
  5
55
100
AcDbEntity
  8
inside_outside
 62
256
370
-1
  6
ByLayer
100
AcDbCircle
 10
17.0
 20
-0.0000000000000042
 30
0.0
 40
6.5
100
AcDbArc
 50
306.0559986851384338
 51
53.9440013148614028
  0
ARC
  5
56
100
AcDbEntity
  8
inside_outside
 62
256
370
-1
  6
ByLayer
100
AcDbCircle
 10
21.1200297140693714
 20
-5.659094906006243
 30
0.0
 40
0.5
100
AcDbArc
 50
126.0559986851385048
 51
203.9440013148615378
  0
ARC
  5
57
100
AcDbEntity
  8
inside_outside
 62
256
370
-1
  6
ByLayer
100
AcDbCircle
 10
14.7224318643354639
 20
8.4999999999999876
 30
0.0
 40
6.5
100
AcDbArc
 50
336.0559986851384338
 51
83.9440013148613673
  0
ARC
  5
58
100
AcDbEntity
  8
inside_outside
 62
256
370
-1
  6
ByLayer
100
AcDbCircle
 10
21.1200297140693891
 20
5.6590949060061764
 30
0.0
 40
0.5
100
AcDbArc
 50
156.0559986851385759
 51
233.9440013148615094
  0
ARC
  5
59
100
AcDbEntity
  8
inside_outside
 62
256
370
-1
  6
ByLayer
100
AcDbCircle
 10
8.4999999999999947
 20
14.7224318643354604
 30
0.0
 40
6.5
100
AcDbArc
 50
6.0559986851384302
 51
113.9440013148613247
  0
ARC
  5
5A
100
AcDbEntity
  8
inside_outside
 62
256
370
-1
  6
ByLayer
100
AcDbCircle
 10
15.4609348080631932
 20
15.4609348080631577
 30
0.0
 40
0.5
100
AcDbArc
 50
186.055998685138519
 51
263.9440013148615662
  0
ARC
  5
5B
100
AcDbEntity
  8
inside_outside
 62
256
370
-1
  6
ByLayer
100
AcDbCircle
 10
0.0000000000000052
 20
17.0
 30
0.0
 40
6.5
100
AcDbArc
 50
36.0559986851383982
 51
143.9440013148613104
  0
ARC
  5
5C
100
AcDbEntity
  8
inside_outside
 62
256
370
-1
  6
ByLayer
100
AcDbCircle
 10
5.6590949060062439
 20
21.1200297140693714
 30
0.0
 40
0.5
100
AcDbArc
 50
216.0559986851384906
 51
293.9440013148615094
  0
ARC
  5
5D
100
AcDbEntity
  8
inside_outside
 62
256
370
-1
  6
ByLayer
100
AcDbCircle
 10
-8.4999999999999858
 20
14.7224318643354657
 30
0.0
 40
6.5
100
AcDbArc
 50
66.0559986851384195
 51
173.9440013148613673
  0
ARC
  5
5E
100
AcDbEntity
  8
inside_outside
 62
256
370
-1
  6
ByLayer
100
AcDbCircle
 10
-5.6590949060061932
 20
21.1200297140693856
 30
0.0
 40
0.5
100
AcDbArc
 50
246.0559986851384622
 51
323.9440013148615094
  0
ARC
  5
5F
100
AcDbEntity
  8
outside_inside
 62
256
370
-1
  6
ByLayer
100
AcDbCircle
 10
0.0000000000000052
 20
17.0
 30
0.0
 40
7.0
100
AcDbArc
 50
36.0559986851385119
 51
143.9440013148614241
  0
ARC
  5
60
100
AcDbEntity
  8
outside_inside
 62
256
370
-1
  6
ByLayer
100
AcDbCircle
 10
-8.4999999999999964
 20
14.7224318643354586
 30
0.0
 40
7.0
100
AcDbArc
 50
66.055998685138519
 51
173.9440013148614241
  0
ARC
  5
61
100
AcDbEntity
  8
outside_inside
 62
256
370
-1
  6
ByLayer
100
AcDbCircle
 10
-14.7224318643354533
 20
8.5000000000000053
 30
0.0
 40
7.0
100
AcDbArc
 50
96.0559986851385048
 51
203.9440013148614241
  0
ARC
  5
62
100
AcDbEntity
  8
outside_inside
 62
256
370
-1
  6
ByLayer
100
AcDbCircle
 10
-17.0
 20
0.0000000000000021
 30
0.0
 40
7.0
100
AcDbArc
 50
126.0559986851385048
 51
233.9440013148613957
  0
ARC
  5
63
100
AcDbEntity
  8
outside_inside
 62
256
370
-1
  6
ByLayer
100
AcDbCircle
 10
-14.7224318643354639
 20
-8.4999999999999893
 30
0.0
 40
7.0
100
AcDbArc
 50
156.055998685138519
 51
263.9440013148613957
  0
ARC
  5
64
100
AcDbEntity
  8
outside_inside
 62
256
370
-1
  6
ByLayer
100
AcDbCircle
 10
-8.5000000000000071
 20
-14.7224318643354533
 30
0.0
 40
7.0
100
AcDbArc
 50
186.0559986851384906
 51
293.9440013148614526
  0
ARC
  5
65
100
AcDbEntity
  8
outside_inside
 62
256
370
-1
  6
ByLayer
100
AcDbCircle
 10
-0.0000000000000031
 20
-17.0
 30
0.0
 40
7.0
100
AcDbArc
 50
216.0559986851384906
 51
323.9440013148613957
  0
ARC
  5
66
100
AcDbEntity
  8
outside_inside
 62
256
370
-1
  6
ByLayer
100
AcDbCircle
 10
8.4999999999999876
 20
-14.7224318643354639
 30
0.0
 40
7.0
100
AcDbArc
 50
246.055998685138519
 51
353.9440013148613957
  0
ARC
  5
67
100
AcDbEntity
  8
outside_inside
 62
256
370
-1
  6
ByLayer
100
AcDbCircle
 10
14.7224318643354533
 20
-8.5000000000000071
 30
0.0
 40
7.0
100
AcDbArc
 50
276.0559986851384906
 51
23.9440013148614348
  0
ARC
  5
68
100
AcDbEntity
  8
outside_inside
 62
256
370
-1
  6
ByLayer
100
AcDbCircle
 10
17.0
 20
-0.0000000000000042
 30
0.0
 40
7.0
100
AcDbArc
 50
306.0559986851384906
 51
53.9440013148614028
  0
ARC
  5
69
100
AcDbEntity
  8
outside_inside
 62
256
370
-1
  6
ByLayer
100
AcDbCircle
 10
14.7224318643354639
 20
8.4999999999999876
 30
0.0
 40
7.0
100
AcDbArc
 50
336.0559986851384906
 51
83.9440013148613673
  0
ARC
  5
6A
100
AcDbEntity
  8
outside_inside
 62
256
370
-1
  6
ByLayer
100
AcDbCircle
 10
8.5000000000000089
 20
14.7224318643354515
 30
0.0
 40
7.0
100
AcDbArc
 50
6.0559986851384817
 51
113.9440013148614383
  0
ARC
  5
6B
100
AcDbEntity
  8
inside_inside
 62
256
370
-1
  6
ByLayer
100
AcDbCircle
 10
-21.7895346560053831
 20
5.8384882145266008
 30
0.0
 40
2.0634000000000001
100
AcDbArc
 50
306.0559986851385474
 51
23.9440013148615307
  0
ARC
  5
6C
100
AcDbEntity
  8
inside_inside
 62
256
370
-1
  6
ByLayer
100
AcDbCircle
 10
-15.1891329544348928
 20
8.7694499999999973
 30
0.0
 40
5.1585000000000001
100
AcDbArc
 50
96.055998685138448
 51
203.9440013148613957
  0
ARC
  5
6D
100
AcDbEntity
  8
inside_inside
 62
256
370
-1
  6
ByLayer
100
AcDbCircle
 10
-21.7895346560053831
 20
-5.8384882145266035
 30
0.0
 40
2.0634000000000001
100
AcDbArc
 50
336.0559986851385474
 51
53.9440013148615236
  0
ARC
  5
6E
100
AcDbEntity
  8
inside_inside
 62
256
370
-1
  6
ByLayer
100
AcDbCircle
 10
-17.5389000000000017
 20
0.0000000000000022
 30
0.0
 40
5.1585000000000001
100
AcDbArc
 50
126.055998685138448
 51
233.9440013148613957
  0
ARC
  5
6F
100
AcDbEntity
  8
inside_inside
 62
256
370
-1
  6
ByLayer
100
AcDbCircle
 10
-15.9510464414787823
 20
-15.9510464414787769
 30
0.0
 40
2.0634000000000001
100
AcDbArc
 50
6.0559986851385323
 51
83.9440013148615378
  0
ARC
  5
70
100
AcDbEntity
  8
inside_inside
 62
256
370
-1
  6
ByLayer
100
AcDbCircle
 10
-15.1891329544348892
 20
-8.7694500000000026
 30
0.0
 40
5.1585000000000001
100
AcDbArc
 50
156.0559986851384338
 51
263.9440013148613389
  0
ARC
  5
71
100
AcDbEntity
  8
inside_inside
 62
256
370
-1
  6
ByLayer
100
AcDbCircle
 10
-5.8384882145266008
 20
-21.7895346560053831
 30
0.0
 40
2.0634000000000001
100
AcDbArc
 50
36.0559986851385474
 51
113.9440013148615378
  0
ARC
  5
72
100
AcDbEntity
  8
inside_inside
 62
256
370
-1
  6
ByLayer
100
AcDbCircle
 10
-8.7694499999999938
 20
-15.1891329544348945
 30
0.0
 40
5.1585000000000001
100
AcDbArc
 50
186.0559986851384338
 51
293.9440013148613957
  0
ARC
  5
73
100
AcDbEntity
  8
inside_inside
 62
256
370
-1
  6
ByLayer
100
AcDbCircle
 10
5.8384882145265928
 20
-21.7895346560053866
 30
0.0
 40
2.0634000000000001
100
AcDbArc
 50
66.0559986851385617
 51
143.9440013148615378
  0
ARC
  5
74
100
AcDbEntity
  8
inside_inside
 62
256
370
-1
  6
ByLayer
100
AcDbCircle
 10
-0.0000000000000032
 20
-17.5389000000000017
 30
0.0
 40
5.1585000000000001
100
AcDbArc
 50
216.0559986851384338
 51
323.9440013148613957
  0
ARC
  5
75
100
AcDbEntity
  8
inside_inside
 62
256
370
-1
  6
ByLayer
100
AcDbCircle
 10
15.9510464414787752
 20
-15.9510464414787823
 30
0.0
 40
2.0634000000000001
100
AcDbArc
 50
96.0559986851385332
 51
173.9440013148615094
  0
ARC
  5
76
100
AcDbEntity
  8
inside_inside
 62
256
370
-1
  6
ByLayer
100
AcDbCircle
 10
8.7694499999999884
 20
-15.1891329544348999
 30
0.0
 40
5.1585000000000001
100
AcDbArc
 50
246.0559986851384053
 51
353.9440013148613389
  0
ARC
  5
77
100
AcDbEntity
  8
inside_inside
 62
256
370
-1
  6
ByLayer
100
AcDbCircle
 10
21.7895346560053831
 20
-5.8384882145266017
 30
0.0
 40
2.0634000000000001
100
AcDbArc
 50
126.0559986851386043
 51
203.9440013148615378
  0
ARC
  5
78
100
AcDbEntity
  8
inside_inside
 62
256
370
-1
  6
ByLayer
100
AcDbCircle
 10
15.1891329544348945
 20
-8.7694499999999955
 30
0.0
 40
5.1585000000000001
100
AcDbArc
 50
276.0559986851384338
 51
23.9440013148613815
  0
ARC
  5
79
100
AcDbEntity
  8
inside_inside
 62
256
370
-1
  6
ByLayer
100
AcDbCircle
 10
21.7895346560053866
 20
5.8384882145265919
 30
0.0
 40
2.0634000000000001
100
AcDbArc
 50
156.0559986851385759
 51
233.9440013148615094
  0
ARC
  5
7A
100
AcDbEntity
  8
inside_inside
 62
256
370
-1
  6
ByLayer
100
AcDbCircle
 10
17.5389000000000017
 20
-0.0000000000000043
 30
0.0
 40
5.1585000000000001
100
AcDbArc
 50
306.0559986851384338
 51
53.9440013148614028
  0
ARC
  5
7B
100
AcDbEntity
  8
inside_inside
 62
256
370
-1
  6
ByLayer
100
AcDbCircle
 10
15.951046441478784
 20
15.9510464414787752
 30
0.0
 40
2.0634000000000001
100
AcDbArc
 50
186.055998685138519
 51
263.9440013148615094
  0
ARC
  5
7C
100
AcDbEntity
  8
inside_inside
 62
256
370
-1
  6
ByLayer
100
AcDbCircle
 10
15.1891329544348999
 20
8.7694499999999884
 30
0.0
 40
5.1585000000000001
100
AcDbArc
 50
336.0559986851384338
 51
83.9440013148613673
  0
ARC
  5
7D
100
AcDbEntity
  8
inside_inside
 62
256
370
-1
  6
ByLayer
100
AcDbCircle
 10
5.8384882145266035
 20
21.7895346560053831
 30
0.0
 40
2.0634000000000001
100
AcDbArc
 50
216.0559986851384906
 51
293.9440013148615094
  0
ARC
  5
7E
100
AcDbEntity
  8
inside_inside
 62
256
370
-1
  6
ByLayer
100
AcDbCircle
 10
8.7694499999999955
 20
15.1891329544348945
 30
0.0
 40
5.1585000000000001
100
AcDbArc
 50
6.0559986851384302
 51
113.9440013148613247
  0
ARC
  5
7F
100
AcDbEntity
  8
inside_inside
 62
256
370
-1
  6
ByLayer
100
AcDbCircle
 10
-5.8384882145265902
 20
21.7895346560053866
 30
0.0
 40
2.0634000000000001
100
AcDbArc
 50
246.0559986851384622
 51
323.9440013148615094
  0
ARC
  5
80
100
AcDbEntity
  8
inside_inside
 62
256
370
-1
  6
ByLayer
100
AcDbCircle
 10
0.0000000000000054
 20
17.5389000000000017
 30
0.0
 40
5.1585000000000001
100
AcDbArc
 50
36.0559986851383982
 51
143.9440013148613104
  0
ARC
  5
81
100
AcDbEntity
  8
inside_inside
 62
256
370
-1
  6
ByLayer
100
AcDbCircle
 10
-15.9510464414787609
 20
15.9510464414788
 30
0.0
 40
2.0634000000000001
100
AcDbArc
 50
276.0559986851385474
 51
353.9440013148615094
  0
ARC
  5
82
100
AcDbEntity
  8
inside_inside
 62
256
370
-1
  6
ByLayer
100
AcDbCircle
 10
-8.7694499999999866
 20
15.1891329544349016
 30
0.0
 40
5.1585000000000001
100
AcDbArc
 50
66.0559986851384195
 51
173.9440013148613673
  0
ARC
  5
83
100
AcDbEntity
  8
outside_outside
 62
256
370
-1
  6
ByLayer
100
AcDbCircle
 10
-8.270499999999986
 20
14.3249262039984071
 30
0.0
 40
8.2705000000000002
100
AcDbArc
 50
73.8260478038528731
 51
166.1739521961470416
  0
ARC
  5
84
100
AcDbEntity
  8
outside_outside
 62
256
370
-1
  6
ByLayer
100
AcDbCircle
 10
-14.3249262039983893
 20
8.2705000000000179
 30
0.0
 40
8.2705000000000002
100
AcDbArc
 50
103.8260478038528731
 51
196.1739521961470416
  0
ARC
  5
85
100
AcDbEntity
  8
outside_outside
 62
256
370
-1
  6
ByLayer
100
AcDbCircle
 10
-16.5410000000000004
 20
0.0000000000000167
 30
0.0
 40
8.2705000000000002
100
AcDbArc
 50
133.8260478038528731
 51
226.1739521961470132
  0
ARC
  5
86
100
AcDbEntity
  8
outside_outside
 62
256
370
-1
  6
ByLayer
100
AcDbCircle
 10
-14.3249262039984089
 20
-8.2704999999999824
 30
0.0
 40
8.2705000000000002
100
AcDbArc
 50
163.8260478038528731
 51
256.17395219614707
  0
ARC
  5
87
100
AcDbEntity
  8
outside_outside
 62
256
370
-1
  6
ByLayer
100
AcDbCircle
 10
-8.2705000000000179
 20
-14.3249262039983893
 30
0.0
 40
8.2705000000000002
100
AcDbArc
 50
193.8260478038528447
 51
286.1739521961470132
  0
ARC
  5
88
100
AcDbEntity
  8
outside_outside
 62
256
370
-1
  6
ByLayer
100
AcDbCircle
 10
-0.0000000000000324
 20
-16.5410000000000004
 30
0.0
 40
8.2705000000000002
100
AcDbArc
 50
223.8260478038528731
 51
316.1739521961470132
  0
ARC
  5
89
100
AcDbEntity
  8
outside_outside
 62
256
370
-1
  6
ByLayer
100
AcDbCircle
 10
8.2704999999999878
 20
-14.3249262039984053
 30
0.0
 40
8.2705000000000002
100
AcDbArc
 50
253.8260478038528731
 51
346.17395219614707
  0
ARC
  5
8A
100
AcDbEntity
  8
outside_outside
 62
256
370
-1
  6
ByLayer
100
AcDbCircle
 10
14.3249262039983876
 20
-8.2705000000000197
 30
0.0
 40
8.2705000000000002
100
AcDbArc
 50
283.8260478038528731
 51
16.1739521961470096
  0
ARC
  5
8B
100
AcDbEntity
  8
outside_outside
 62
256
370
-1
  6
ByLayer
100
AcDbCircle
 10
16.5410000000000004
 20
-0.0000000000000335
 30
0.0
 40
8.2705000000000002
100
AcDbArc
 50
313.8260478038528731
 51
46.1739521961470274
  0
ARC
  5
8C
100
AcDbEntity
  8
outside_outside
 62
256
370
-1
  6
ByLayer
100
AcDbCircle
 10
14.3249262039984053
 20
8.2704999999999878
 30
0.0
 40
8.2705000000000002
100
AcDbArc
 50
343.8260478038528731
 51
76.1739521961470416
  0
ARC
  5
8D
100
AcDbEntity
  8
outside_outside
 62
256
370
-1
  6
ByLayer
100
AcDbCircle
 10
8.2705000000000197
 20
14.3249262039983876
 30
0.0
 40
8.2705000000000002
100
AcDbArc
 50
13.8260478038528536
 51
106.1739521961470132
  0
ARC
  5
8E
100
AcDbEntity
  8
outside_outside
 62
256
370
-1
  6
ByLayer
100
AcDbCircle
 10
0.0000000000000344
 20
16.5410000000000004
 30
0.0
 40
8.2705000000000002
100
AcDbArc
 50
43.8260478038528731
 51
136.1739521961469848
  0
ENDSEC
  0
SECTION
  2
OBJECTS
  0
DICTIONARY
  5
C
100
AcDbDictionary
280
0
281
1
  3
ACAD_GROUP
350
D
  3
ACAD_LAYOUT
350
1A
  3
ACAD_MLINESTYLE
350
17
  3
ACAD_PLOTSETTINGS
350
19
  3
ACAD_PLOTSTYLENAME
350
E
  3
AcDbVariableDictionary
350
8F
  0
DICTIONARY
  5
D
100
AcDbDictionary
280
0
281
1
  0
ACDBDICTIONARYWDFLT
  5
E
100
AcDbDictionary
281
1
  3
Normal
350
F
100
AcDbDictionaryWithDefault
340
F
  0
ACDBPLACEHOLDER
  5
F
  0
DICTIONARY
  5
17
100
AcDbDictionary
280
0
281
1
  3
Standard
350
18
  0
MLINESTYLE
  5
18
100
AcDbMlineStyle
  2
STANDARD
 70
0
  3

 62
256
 51
90.0
 52
90.0
 71
2
 49
0.5
 62
256
  6
BYLAYER
 49
-0.5
 62
256
  6
BYLAYER
  0
DICTIONARY
  5
19
100
AcDbDictionary
280
0
281
1
  0
DICTIONARY
  5
1A
100
AcDbDictionary
281
1
  3
Layout1
350
1E
  3
Layout2
350
26
  3
Model
350
22
  0
LAYOUT
  5
1E
100
AcDbPlotSettings
  1

  2
C:\Program Files\AutoCAD 2002\plotters\DWF ePlot (optimized for plotting).pc3
  4

  6

 40
0.0
 41
0.0
 42
0.0
 43
0.0
 44
0.0
 45
0.0
 46
0.0
 47
0.0
 48
0.0
 49
0.0
140
0.0
141
0.0
142
1.0
143
1.0
 70
688
 72
0
 73
0
 74
5
  7

 75
16
147
1.0
148
0.0
149
0.0
100
AcDbLayout
  1
Layout1
 70
1
 71
1
 10
0.0
 20
0.0
 11
420.0
 21
297.0
 12
0.0
 22
0.0
 32
0.0
 14
100000000000000000000.0
 24
100000000000000000000.0
 34
100000000000000000000.0
 15
-100000000000000000000.0
 25
-100000000000000000000.0
 35
-100000000000000000000.0
146
0.0
 13
0.0
 23
0.0
 33
0.0
 16
1.0
 26
0.0
 36
0.0
 17
0.0
 27
1.0
 37
0.0
 76
0
330
1B
  0
LAYOUT
  5
22
100
AcDbPlotSettings
  1

  2
C:\Program Files\AutoCAD 2002\plotters\DWF ePlot (optimized for plotting).pc3
  4

  6

 40
0.0
 41
0.0
 42
0.0
 43
0.0
 44
0.0
 45
0.0
 46
0.0
 47
0.0
 48
0.0
 49
0.0
140
0.0
141
0.0
142
1.0
143
1.0
 70
1712
 72
0
 73
0
 74
0
  7

 75
0
147
1.0
148
0.0
149
0.0
100
AcDbLayout
  1
Model
 70
1
 71
0
 10
0.0
 20
0.0
 11
12.0
 21
9.0
 12
0.0
 22
0.0
 32
0.0
 14
0.0
 24
0.0
 34
0.0
 15
0.0
 25
0.0
 35
0.0
146
0.0
 13
0.0
 23
0.0
 33
0.0
 16
1.0
 26
0.0
 36
0.0
 17
0.0
 27
1.0
 37
0.0
 76
0
330
1F
  0
LAYOUT
  5
26
100
AcDbPlotSettings
  1

  2
C:\Program Files\AutoCAD 2002\plotters\DWF ePlot (optimized for plotting).pc3
  4

  6

 40
0.0
 41
0.0
 42
0.0
 43
0.0
 44
0.0
 45
0.0
 46
0.0
 47
0.0
 48
0.0
 49
0.0
140
0.0
141
0.0
142
1.0
143
1.0
 70
688
 72
0
 73
0
 74
5
  7

 75
16
147
1.0
148
0.0
149
0.0
100
AcDbLayout
  1
Layout2
 70
1
 71
2
 10
0.0
 20
0.0
 11
12.0
 21
9.0
 12
0.0
 22
0.0
 32
0.0
 14
0.0
 24
0.0
 34
0.0
 15
0.0
 25
0.0
 35
0.0
146
0.0
 13
0.0
 23
0.0
 33
0.0
 16
1.0
 26
0.0
 36
0.0
 17
0.0
 27
1.0
 37
0.0
 76
0
330
23
  0
DICTIONARY
  5
8F
100
AcDbDictionary
281
1
  3
DIMASSOC
350
91
  3
HIDETEXT
350
90
  0
DICTIONARYVAR
  5
90
100
DictionaryVariables
280
0
  1
2
  0
DICTIONARYVAR
  5
91
100
DictionaryVariables
280
0
  1
1
  0
ENDSEC
  0
EOF
