<?xml version="1.0" encoding="UTF-8" standalone="no"?>
<svg
   xmlns:dc="http://purl.org/dc/elements/1.1/"
   xmlns:cc="http://creativecommons.org/ns#"
   xmlns:rdf="http://www.w3.org/1999/02/22-rdf-syntax-ns#"
   xmlns:svg="http://www.w3.org/2000/svg"
   xmlns="http://www.w3.org/2000/svg"
   width="74"
   height="68"
   version="1.1">
  <!-- Created with SVG-edit - http://svg-edit.googlecode.com/ -->
  <title>AutoBuildMarlin View</title>
  <g
     transform="matrix(0.92865175,0,0,0.97009223,1.4847157,1.0636373)"
     style="stroke-width:1.05357885">
    <path
       d="M 11.136251,-1.096429 V 0.65746893 H 7.6344377 V 2.4082389 H 5.8835346 V 4.1621368 H 4.1294904 V 5.9128924 H 2.378583 V 7.6667969 H 0.62767696 V 11.171465 H -1.1232297 v 45.56378 h 1.75090666 v 3.504652 H 2.378583 v 1.750767 h 1.7509074 v 1.753904 h 1.7540442 v 1.750758 h 1.7509031 v 1.753903 h 3.5018133 v 1.75077 h 54.215335 v -1.75077 h 3.501813 v -1.753903 h 1.750911 v -1.750758 h 1.754045 v -1.753904 h 1.750905 v -1.750767 h 1.750909 v -3.504652 h 1.750903 V 0.65746893 H 75.860169 V -1.096429 Z"
       style="display:inline;opacity:0.2;fill:#ffffff;stroke:none;stroke-width:1.4047718" />
    <path
       d="m 23.819389,8.3649514 v 1.7008096 h -3.4019 v 1.703862 h -1.700946 v 1.703855 h -1.703998 v 1.700811 h -1.700954 v 3.404672 h -1.700946 v 39.155205 h 1.700946 v 1.703864 h 8.507798 V 20.282816 h 1.700952 v -1.703855 h 6.806845 v 1.703855 h 1.700947 V 59.43803 h 10.20875 V 20.282816 h 1.700946 v -1.703855 h 6.803799 v 1.703855 h 1.700946 V 59.43803 H 64.651325 V 18.578961 H 62.950373 V 15.174289 H 61.249426 V 13.473478 H 59.548472 V 11.769623 H 57.847527 V 10.065761 H 54.442574 V 8.3649514 h -8.504745 v 1.7008096 h -3.401898 v 1.703862 h -1.704 v 1.703855 H 37.430032 V 11.769623 H 35.729087 V 10.065761 H 32.327186 V 8.3649514 Z"
       style="display:inline;fill:#000000;stroke:none;stroke-width:1.40477192" />
  </g>
</svg>
