<?xml version="1.0" encoding="UTF-8" standalone="no"?>
<!-- Created with Inkscape (http://www.inkscape.org/) -->
<svg
   xmlns:dc="http://purl.org/dc/elements/1.1/"
   xmlns:cc="http://creativecommons.org/ns#"
   xmlns:rdf="http://www.w3.org/1999/02/22-rdf-syntax-ns#"
   xmlns:svg="http://www.w3.org/2000/svg"
   xmlns="http://www.w3.org/2000/svg"
   width="48" height="48"
   viewBox="0 0 48 48"
   version="1.1">
  <g transform="translate(0,-284.3)">
    <path
       style="display:inline;opacity:0.5;fill:#ffffff;stroke:none;stroke-width:1.33333266"
       d="m 7,284.3 v 1 H 5 v 2 H 3 v 2 H 1 v 2 H 0 v 34 h 1 v 2 h 2 v 2 h 2 v 2 h 2 v 1 h 34 v -1 h 2 v -2 h 2 v -2 h 2 v -2 h 1 v -39.91815 h -1.03376 v -1.08183 z" />
    <g style="fill:#000000">
      <path
         style="fill:#000000;fill-rule:evenodd;stroke:none;stroke-width:0.99999994px;stroke-linecap:butt;stroke-linejoin:miter;stroke-opacity:1"
         d="m 5,296.3 v 2 l 1,1 l 3,28 l 1,1 h 28 l 1,-1 l 3,-28 l 1,-1 v -2 z m 7,4 h 2 l 1,1 l 2,22 l -1,1 h -2 l -1,-1 l -2,-22 z m 11,0 h 2 l 1,1 v 22 l -1,1 h -2 l -1,-1 v -22 z m 11,0 h 2 l 1,1 l -2,22 l -1,1 h -2 l -1,-1 l 2,-22 z" />
      <path
         style="color:#000000;clip-rule:nonzero;display:inline;overflow:visible;visibility:visible;opacity:1;isolation:auto;mix-blend-mode:normal;color-interpolation:sRGB;color-interpolation-filters:linearRGB;solid-color:#000000;solid-opacity:1;vector-effect:none;fill:#000000;fill-opacity:1;fill-rule:evenodd;stroke:none;stroke-width:0.94488192;stroke-linecap:square;stroke-linejoin:round;stroke-miterlimit:4;stroke-dasharray:none;stroke-dashoffset:0;stroke-opacity:1;paint-order:stroke fill markers;color-rendering:auto;image-rendering:auto;shape-rendering:auto;text-rendering:auto;enable-background:accumulate"
         d="m 5,292.3 h 1 v -1 l 9,-2 h 4 l 1,-2 h 7 l 1,2 h 5 l 9,2 v 1 h 1 v 2 H 5 Z" />
    </g>
  </g>
</svg>
